<?xml version="1.0" standalone="no"?>
<!DOCTYPE svg PUBLIC "-//W3C//DTD SVG 1.1//EN" "http://www.w3.org/Graphics/SVG/1.1/DTD/svg11.dtd" >
<svg xmlns="http://www.w3.org/2000/svg">
<metadata></metadata>
<defs>
<font id="publico_text_romanitalic" horiz-adv-x="1415" >
<font-face units-per-em="2048" ascent="1638" descent="-410" />
<missing-glyph horiz-adv-x="446" />
<glyph unicode="&#xfb01;" horiz-adv-x="1105" d="M-291 -338q0 38 26 65t64 27q44 0 68.5 -22.5t36.5 -75.5q5 -20 11 -27.5t19 -7.5q29 0 47 9.5t34.5 32.5t30 76.5t27 124t33.5 193.5l140 879h-135l10 59l143 47l2 15q35 238 186 376t361 138q89 0 137.5 -34t48.5 -87q0 -52 -26.5 -80.5t-71.5 -28.5q-52 0 -77 25 t-36 76q-6 33 -15 44t-30 11q-211 0 -276 -403l-8 -52h483q30 0 52 -15.5t22 -49.5q0 -14 -1.5 -30.5t-3.5 -28t-7 -35t-7.5 -33.5t-10.5 -41.5t-11 -42.5l-127 -522q-10 -42 -10 -72q0 -70 123 0l51 33l30 -47q-100 -92 -173 -134t-154 -42q-40 0 -64 27.5t-24 68.5 q0 70 24 164l137 551q19 83 19 108q0 19 -10 27t-33 8h-324l-102 -627q-45 -279 -110.5 -450t-147 -244.5t-189.5 -73.5q-86 0 -134 30.5t-48 90.5z" />
<glyph unicode="&#xfb02;" horiz-adv-x="1138" d="M-291 -338q0 38 26 65t64 27q44 0 68.5 -22.5t36.5 -75.5q5 -20 11 -27.5t19 -7.5q29 0 47 9.5t34.5 32.5t30 76.5t27 124t33.5 193.5l140 879h-135l10 59l143 47l2 15q35 245 181.5 379.5t363.5 134.5q60 0 106 -18.5t68 -49.5l127 66l25 -17q-37 -112 -64 -241 l-203 -1065q-10 -50 -10 -74q0 -71 131 4l45 29l31 -47q-100 -92 -176 -134t-158 -42q-40 0 -64 27.5t-24 68.5q0 19 2.5 41.5t5 36t9 45t8.5 43.5l215 1102q-39 4 -58.5 28t-27.5 70q-7 32 -20 42.5t-38 10.5q-70 0 -120 -35.5t-90 -126t-64 -241.5l-8 -52h248l-25 -106 h-242l-102 -627q-45 -279 -110.5 -450t-147 -244.5t-189.5 -73.5q-86 0 -134 30.5t-48 90.5z" />
<glyph unicode="&#xfb03;" horiz-adv-x="1654" d="M-291 -338q0 38 26 65t64 27q44 0 68.5 -22.5t36.5 -75.5q5 -20 11 -27.5t19 -7.5q29 0 47 9.5t34.5 32.5t30 76.5t27 124t33.5 193.5l140 879h-135l10 59l143 47l2 15q33 228 164 358.5t309 130.5q175 0 260 -114q148 139 363 139q89 0 137.5 -34t48.5 -87 q0 -52 -26.5 -80.5t-71.5 -28.5q-52 0 -77 25t-36 76q-6 33 -15 44t-30 11q-211 0 -276 -403l-8 -52h483q30 0 52 -15.5t22 -49.5q0 -14 -1.5 -30.5t-3.5 -28t-7 -35t-7.5 -33.5t-10.5 -41.5t-11 -42.5l-127 -522q-11 -46 -11 -72q0 -70 123 0l52 33l30 -47 q-100 -92 -173 -134t-154 -42q-40 0 -64 27.5t-24 68.5q0 70 24 164l137 551q19 83 19 108q0 19 -10 27t-33 8h-324l-102 -627q-34 -210 -78 -355.5t-98.5 -230.5t-116.5 -122t-139 -37q-75 0 -120.5 30.5t-45.5 81.5q0 44 24.5 68.5t65.5 24.5q45 0 65 -21t33 -70 q5 -19 11.5 -26.5t19.5 -7.5q38 0 57.5 24.5t39.5 108.5t50 280l140 879h-355l-102 -627q-45 -279 -110.5 -450t-147 -244.5t-189.5 -73.5q-86 0 -134 30.5t-48 90.5zM459 1042h354l2 15q18 124 68 219q-16 85 -63.5 141t-119.5 56q-86 0 -143.5 -86.5t-89.5 -292.5z" />
<glyph unicode="&#xfb04;" horiz-adv-x="1687" d="M-291 -338q0 38 26 65t64 27q44 0 68.5 -22.5t36.5 -75.5q5 -20 11 -27.5t19 -7.5q29 0 47 9.5t34.5 32.5t30 76.5t27 124t33.5 193.5l140 879h-135l10 59l143 47l2 15q33 228 164 358.5t309 130.5q170 0 256 -110q144 135 365 135q60 0 106 -18.5t68 -49.5l127 66 l25 -17q-37 -112 -64 -241l-203 -1067q-10 -50 -10 -72q0 -71 131 4l45 29l31 -47q-100 -92 -176 -134t-158 -42q-40 0 -64 27.5t-24 68.5q0 20 2.5 42t5 36.5t8.5 42.5t9 43l215 1104q-39 4 -58.5 28t-27.5 70q-7 32 -20 42.5t-38 10.5q-70 0 -120 -35.5t-90 -126 t-64 -241.5l-8 -52h247l-24 -106h-242l-102 -627q-34 -210 -78 -355.5t-98.5 -230.5t-116.5 -122t-139 -37q-75 0 -120.5 30.5t-45.5 81.5q0 44 24.5 68.5t65.5 24.5q45 0 65 -21t33 -70q5 -19 11.5 -26.5t19.5 -7.5q38 0 57.5 24.5t39.5 108.5t50 280l140 879h-355 l-102 -627q-45 -279 -110.5 -450t-147 -244.5t-189.5 -73.5q-86 0 -134 30.5t-48 90.5zM459 1042h354l2 15q18 125 66 223q-16 83 -63 138t-118 55q-86 0 -143.5 -86.5t-89.5 -292.5z" />
<glyph horiz-adv-x="0" />
<glyph horiz-adv-x="682" />
<glyph unicode=" "  horiz-adv-x="446" />
<glyph unicode="&#x09;" horiz-adv-x="446" />
<glyph unicode="&#xa0;" horiz-adv-x="446" />
<glyph unicode="!" horiz-adv-x="552" d="M55 131q0 60 43.5 102.5t104.5 42.5q63 0 106 -42.5t43 -102.5t-43 -101.5t-106 -41.5q-62 0 -105 41.5t-43 101.5zM217 428l68 866q6 77 46 110.5t99 33.5q70 0 104.5 -49t8.5 -134l-250 -827h-76z" />
<glyph unicode="&#x22;" horiz-adv-x="702" d="M225 889v409q0 77 34.5 110.5t80.5 33.5q57 0 83 -43.5t-1 -116.5l-135 -393h-62zM539 889l8 409q1 75 33.5 109.5t76.5 34.5q58 0 86 -42.5t0 -117.5l-143 -393h-61z" />
<glyph unicode="#" horiz-adv-x="1050" d="M63 401l39 152h185l86 319h-178l34 152h185l112 395h113l-115 -395h230l112 395h111l-113 -395h178l-34 -152h-187l-84 -319h178l-41 -152h-186l-106 -401h-109l107 401h-230l-108 -401h-111l107 401h-175zM397 553h230l84 319h-230z" />
<glyph unicode="$" horiz-adv-x="1028" d="M-20 213q0 59 28.5 87t77.5 28q60 0 87.5 -26t31.5 -101q2 -37 6.5 -57t21 -40.5t50.5 -30.5t90 -14l104 592q-158 94 -224.5 178.5t-66.5 198.5q0 90 37.5 166t99.5 126t138.5 79.5t156.5 34.5l23 131h96l-24 -131q167 -11 246 -70t79 -135q0 -60 -29.5 -93.5 t-76.5 -33.5q-57 0 -83 31.5t-30 111.5q-3 54 -28 79t-93 32l-96 -537q173 -103 245.5 -195.5t72.5 -211.5q0 -121 -67 -219t-172.5 -151.5t-227.5 -59.5l-35 -207h-96l36 207q-103 5 -179.5 27t-118 56t-61 70.5t-19.5 77.5zM348 1098q0 -62 39 -116t129 -112l88 486 q-113 -9 -184.5 -78t-71.5 -180zM467 59q133 10 204.5 87.5t71.5 189.5q0 79 -43 139.5t-137 122.5z" />
<glyph unicode="%" horiz-adv-x="1581" d="M113 -102l1247 1564h123l-1243 -1564h-127zM131 1008q0 109 52.5 209t141 161.5t187.5 61.5q113 0 197 -78.5t84 -216.5q0 -110 -53 -210.5t-141.5 -161t-186.5 -60.5q-115 0 -198 78t-83 217zM295 965q0 -181 121 -181q87 0 150 119t63 285q0 180 -119 180 q-57 0 -107 -55t-79 -148t-29 -200zM846 268q0 109 52.5 209t141 161.5t187.5 61.5q113 0 196.5 -78t83.5 -216q0 -110 -53 -210.5t-141.5 -161.5t-186.5 -61q-115 0 -197.5 78t-82.5 217zM1010 225q0 -180 120 -180q87 0 150 119t63 285q0 180 -118 180q-87 0 -151 -120.5 t-64 -283.5z" />
<glyph unicode="&#x26;" horiz-adv-x="1368" d="M37 307q0 75 23.5 142t59.5 116.5t90.5 95.5t105.5 77.5t116 64.5q-61 131 -61 248q0 90 34.5 166t89.5 124.5t122 75.5t135 27q122 0 205 -69.5t83 -182.5q0 -127 -101.5 -223t-287.5 -176q106 -205 275 -453q59 79 95 156.5t36 130.5q0 26 -14.5 38t-53.5 23l-45 12 l10 62h394l-11 -62l-63 -16q-44 -11 -68.5 -33t-58.5 -86q-13 -24 -38.5 -73t-41.5 -79t-41 -71.5t-49 -75.5q74 -105 96 -133q21 -34 66 -45l102 -25l-12 -63h-299q-43 52 -88 115q-165 -142 -373 -142q-96 0 -172 21t-123.5 54.5t-79.5 78.5t-44.5 89.5t-12.5 90.5z M258 324q0 -114 65 -182t187 -68q81 0 145.5 26.5t132.5 87.5q-172 250 -321 545q-105 -68 -157 -161t-52 -248zM549 1135q0 -124 72 -277q127 64 188 144.5t61 199.5q0 73 -35 113.5t-94 40.5q-87 0 -139.5 -64.5t-52.5 -156.5z" />
<glyph unicode="'" horiz-adv-x="380" d="M225 889v409q0 77 35 110.5t82 33.5q57 0 80.5 -42t-0.5 -118l-135 -393h-62z" />
<glyph unicode="(" horiz-adv-x="661" d="M111 502q0 140 39.5 274t102 240.5t149.5 205.5t171.5 169.5t178.5 132.5l45 -54q-234 -198 -366 -464t-132 -574q2 -361 227 -674l-67 -45q-348 369 -348 789z" />
<glyph unicode=")" horiz-adv-x="661" d="M-98 -233q234 198 365.5 464t131.5 574q-2 361 -227 674l68 45q348 -369 348 -789q0 -140 -39.5 -274t-102 -240.5t-149.5 -205.5t-171.5 -169.5t-178.5 -132.5z" />
<glyph unicode="*" horiz-adv-x="860" d="M194 1181.5q0 24.5 11 49.5q16 33 53 40t78 -24l176 -141l-27 229q-5 58 24.5 83.5t70.5 21.5q27 -3 45 -16t25.5 -38t-9.5 -63l-96 -217l209 102q51 22 85 5.5t40 -56.5q5 -41 -19.5 -69t-79.5 -27l-235 4l166 -168q35 -42 26.5 -78t-45.5 -57q-33 -21 -70 -8.5 t-51 65.5l-55 223l-121 -208q-26 -47 -68.5 -55t-70.5 18q-19 16 -25.5 41t6 53t44.5 47l211 129l-226 41q-34 7 -53 28t-19 45.5z" />
<glyph unicode="+" horiz-adv-x="942" d="M111 635v115h319v366h133v-366h320v-115h-320v-367h-133v367h-319z" />
<glyph unicode="," horiz-adv-x="636" d="M-82 -272q347 114 356 299q-26 -21 -63 -21q-61 0 -96 38t-35 97t44 97t109 38q78 0 132.5 -61t54.5 -164q0 -130 -133.5 -240t-354.5 -143z" />
<glyph unicode="-" horiz-adv-x="591" d="M76 520l22 152h443l-23 -152h-442z" />
<glyph unicode="." horiz-adv-x="577" d="M80 131q0 60 43 102.5t104 42.5q63 0 106.5 -42.5t43.5 -102.5t-43.5 -101.5t-106.5 -41.5q-62 0 -104.5 41.5t-42.5 101.5z" />
<glyph unicode="/" horiz-adv-x="776" d="M-117 -266l879 1769h121l-879 -1769h-121z" />
<glyph unicode="0" horiz-adv-x="1288" d="M96 530q0 158 41.5 303t111 254t158.5 191t187.5 124t193.5 42q70 0 136 -21t126.5 -66t105.5 -110t72 -160.5t27 -209.5q0 -131 -29.5 -254t-79.5 -220.5t-118 -179t-145 -135.5t-159.5 -83.5t-162.5 -29.5q-90 0 -171.5 33.5t-148 99t-106 174.5t-39.5 248zM315 446 q0 -374 252 -374q97 0 184.5 69t150.5 187.5t99.5 282.5t36.5 347q0 194 -64.5 293t-189.5 99q-130 0 -238.5 -125.5t-169.5 -332.5t-61 -446z" />
<glyph unicode="1" horiz-adv-x="722" d="M-18 0l12 63l110 19q48 8 65 28.5t30 94.5l172 975h-193l10 61q140 28 228.5 72.5t173.5 124.5l41 -13l-215 -1220q-13 -73 -6 -96t47 -27l112 -19l-12 -63h-575z" />
<glyph unicode="2" horiz-adv-x="1038" d="M-51 0l22 117q362 265 510 395q87 78 142 136t107 132.5t76.5 155t24.5 174.5q0 135 -62 192.5t-175 57.5q-58 0 -87 -23t-32 -73q-9 -134 -131 -134q-108 0 -108 107q0 93 104.5 150t273.5 57q188 0 309 -100t121 -271q0 -53 -14.5 -106.5t-37.5 -101.5t-65 -100.5 t-82 -96t-104 -97t-116 -94t-133.5 -97t-140.5 -96t-152 -100.5v-8h458q83 0 120 26t108 134h57l-92 -336h-901z" />
<glyph unicode="3" horiz-adv-x="1030" d="M-29 186q0 55 30 90t93 35q116 0 125 -112q8 -89 30 -113.5t97 -24.5q172 0 263 108.5t91 299.5q0 227 -241 227h-109l17 95h96q153 0 227 80.5t74 281.5q0 112 -51.5 159.5t-163.5 47.5q-64 0 -98 -23.5t-37 -81.5q-4 -70 -33 -97.5t-86 -27.5q-109 0 -109 107 q0 92 108.5 149.5t268.5 57.5q198 0 305 -92t107 -226q0 -149 -93 -248t-280 -133v-6q159 -26 240.5 -108t81.5 -205q0 -136 -83 -241t-210.5 -157.5t-272.5 -52.5q-183 0 -285 53t-102 158z" />
<glyph unicode="4" horiz-adv-x="1136" d="M25 406l18 94l864 919h115l-162 -889h215l-31 -124h-206l-33 -201q-14 -73 -7.5 -94.5t46.5 -28.5l94 -19l-12 -63h-525l13 63l94 19q41 8 57.5 28.5t30.5 94.5l33 201h-604zM195 530h456l109 603h-6l-559 -598v-5z" />
<glyph unicode="5" horiz-adv-x="1046" d="M16 184q0 56 30.5 89.5t96.5 33.5q59 0 87 -29t34 -106q3 -66 26.5 -88.5t108.5 -22.5q163 0 262 93.5t99 257.5q0 156 -89 232.5t-235 76.5q-140 0 -246 -47l-14 12l197 733h528q40 0 61 18t64 89h59l-79 -287h-582l-96 -365q74 29 188 29q124 0 222.5 -44t159 -136.5 t60.5 -220.5q0 -102 -35 -190t-93 -149t-132.5 -104t-153.5 -63.5t-157 -20.5q-166 0 -268.5 56t-102.5 153z" />
<glyph unicode="6" horiz-adv-x="1148" d="M98 498q0 137 34 266t92.5 231t137 187.5t166 142t180.5 88t181 31.5q295 0 295 -168q0 -54 -28 -87.5t-83 -33.5q-63 0 -89 28t-32 99q-4 48 -22.5 63t-69.5 15q-71 0 -144 -38t-142 -110.5t-128 -191.5t-96 -268q154 106 336 106q168 0 267.5 -97t99.5 -265 q0 -157 -74 -278t-189 -182t-247 -61q-199 0 -322 142t-123 381zM305 379q0 -307 244 -307q138 0 214.5 118.5t76.5 313.5q0 131 -53.5 193.5t-163.5 62.5q-138 0 -291 -92q-27 -162 -27 -289z" />
<glyph unicode="7" horiz-adv-x="999" d="M141 0q54 164 129 319.5t150.5 276t171.5 244.5t174 211.5t178 189.5h-573q-51 0 -77.5 -24.5t-76.5 -114.5h-59l82 317h890l-16 -92q-286 -309 -465 -616t-284 -711h-224z" />
<glyph unicode="8" horiz-adv-x="1099" d="M33 319q0 251 387 420v6q-92 69 -139.5 141.5t-47.5 160.5q0 172 128.5 285.5t314.5 113.5q106 0 197.5 -39.5t148.5 -114.5t57 -168q0 -52 -19 -99.5t-48 -84t-76 -72.5t-91 -62.5t-104 -57.5v-7q129 -90 189.5 -168.5t60.5 -185.5q0 -167 -141 -289.5t-348 -122.5 q-124 0 -229 39t-172.5 119t-67.5 186zM219 330q0 -117 76 -187.5t209 -70.5q144 0 222.5 73t78.5 181q0 53 -20 98.5t-75 95.5t-88 74.5t-123 85.5q-13 9 -20 14q-35 -24 -46.5 -31.5t-47 -34.5t-51.5 -44t-42.5 -49t-39 -60t-23 -66.5t-10.5 -78.5zM412 1122 q0 -50 21.5 -96t63.5 -87.5t84.5 -73t104.5 -70.5q90 68 119 98q102 102 102 235q0 102 -62.5 163t-174.5 61q-116 0 -187 -65.5t-71 -164.5z" />
<glyph unicode="9" horiz-adv-x="1148" d="M39 143q0 51 31 85t84 34q57 0 83 -28.5t35 -92.5q7 -49 27 -64.5t68 -15.5q177 0 304.5 153t188.5 450q-155 -103 -336 -103q-166 0 -266 98t-100 263q0 96 30.5 180.5t82 146t117.5 106.5t138 67t142 22q202 0 323 -142t121 -401q0 -193 -65 -367t-171.5 -295.5 t-246.5 -192.5t-287 -71q-153 0 -228 44.5t-75 123.5zM371 915q0 -253 219 -253q140 0 289 92q28 129 28 286q0 63 -12 115.5t-39 98t-76.5 71t-117.5 25.5q-137 0 -214 -121.5t-77 -313.5z" />
<glyph unicode=":" horiz-adv-x="585" d="M88 131q0 60 43.5 102.5t104.5 42.5q63 0 106 -42.5t43 -102.5t-43 -101.5t-106 -41.5q-62 0 -105 41.5t-43 101.5zM190 707q0 60 43.5 102.5t104.5 42.5q63 0 106 -42.5t43 -102.5t-43 -102t-106 -42q-62 0 -105 42t-43 102z" />
<glyph unicode=";" horiz-adv-x="653" d="M-74 -272q348 115 357 299q-26 -21 -64 -21q-61 0 -96 38t-35 97t44.5 97t109.5 38q78 0 132 -61t54 -164q0 -130 -133 -240t-354 -143zM197 707q0 60 43 102.5t104 42.5q63 0 106.5 -42.5t43.5 -102.5t-43.5 -102t-106.5 -42q-61 0 -104 42t-43 102z" />
<glyph unicode="&#x3c;" horiz-adv-x="942" d="M100 573v136l779 348v-125l-666 -291l666 -291v-127z" />
<glyph unicode="=" horiz-adv-x="1001" d="M102 424v115h840v-115h-840zM102 756v116h840v-116h-840z" />
<glyph unicode="&#x3e;" horiz-adv-x="942" d="M100 225v127l666 289l-666 291v129l779 -350v-136z" />
<glyph unicode="?" horiz-adv-x="899" d="M121 131q0 60 43 102.5t104 42.5q63 0 106.5 -42.5t43.5 -102.5t-43.5 -101.5t-106.5 -41.5q-62 0 -104.5 41.5t-42.5 101.5zM209 1272q0 60 42.5 100.5t102.5 56t133 15.5q176 0 296 -95.5t120 -269.5q0 -85 -26.5 -154.5t-71.5 -118.5t-111 -87t-137 -61.5t-158 -41.5 l-39 -202h-104l61 350q422 65 422 387q0 103 -61.5 156t-151.5 53q-45 0 -64.5 -16t-25.5 -60q-13 -113 -127 -113q-45 0 -72.5 28t-27.5 73z" />
<glyph unicode="@" horiz-adv-x="1857" d="M78 420q0 133 35 259t98 231.5t152 194t194.5 150t229 95.5t251.5 34q218 0 387 -78.5t263 -223.5t94 -334q0 -145 -36.5 -262.5t-94 -191t-131.5 -123.5t-145 -70.5t-138 -20.5q-121 0 -162.5 57.5t-34.5 165.5h-8q-130 -219 -309 -219q-88 0 -144.5 61.5t-56.5 173.5 q0 117 34 226t89 189.5t123.5 141.5t139.5 92t134 31q108 0 193 -61h8l76 57l39 -18q-33 -72 -62 -211l-69 -383q-21 -106 -6 -151.5t79 -45.5q140 0 240 131t100 359q0 294 -151 456t-451 162q-175 0 -325 -67.5t-251.5 -180.5t-158.5 -261t-57 -308q0 -163 41 -291.5 t123.5 -222.5t214 -144t305.5 -50q255 0 500 110v-80q-97 -57 -239.5 -95t-318.5 -38q-175 0 -323 55.5t-251.5 154.5t-161.5 239t-58 305zM711 348q0 -78 20.5 -108.5t67.5 -30.5q101 0 248 215l83 424q-24 39 -45 52q-24 15 -57 15q-75 0 -148 -76t-121 -209t-48 -282z " />
<glyph unicode="A" horiz-adv-x="1325" d="M-92 0l12 63l64 15q32 8 52 21.5t50.5 57t77.5 132.5l604 1130h135l191 -1153q20 -108 38.5 -144t55.5 -44l53 -15l-14 -63h-500l10 63l60 15q52 11 70 32.5t18 55.5q0 30 -13 119l-30 192h-459l-98 -192q-3 -5 -12 -23.5t-12 -24.5l-10.5 -21t-10 -22.5t-6.5 -18.5 t-5.5 -19t-1.5 -15q0 -27 12 -41.5t44 -21.5l65 -15l-12 -63h-428zM430 569h397l-90 584h-10z" />
<glyph unicode="B" horiz-adv-x="1239" d="M-33 0l13 63l96 19q39 8 55 29t29 94l180 1012q8 47 8 72q0 15 -3 22q-7 20 -46 28l-90 19l12 61h498q207 0 329.5 -83.5t122.5 -225.5q0 -155 -101.5 -244.5t-281.5 -120.5v-8q172 -26 264.5 -106.5t92.5 -202.5q0 -141 -72 -238.5t-195.5 -143.5t-289.5 -46h-621z M385 256q-6 -32 -6 -56q0 -56 30 -78q44 -32 187 -32q165 0 243.5 87.5t78.5 273.5q0 120 -64 179.5t-207 59.5h-186zM479 782h154q160 0 237.5 81.5t77.5 248.5q0 118 -54 167.5t-189 49.5q-77 0 -132 -12z" />
<glyph unicode="C" horiz-adv-x="1257" d="M94 557q0 190 65 356.5t174 282t255 182t305 66.5q221 0 375 -70l-35 -385h-74q-38 192 -90 287q-25 45 -62 60.5t-124 15.5q-108 0 -199.5 -45.5t-157 -125.5t-111.5 -187t-68.5 -230t-22.5 -256q0 -226 84.5 -333t271.5 -107q89 0 135 20.5t92 73.5q94 102 189 272h69 l-96 -391q-146 -68 -407 -68q-257 0 -412.5 155t-155.5 427z" />
<glyph unicode="D" horiz-adv-x="1406" d="M-33 0l13 63l96 19q38 6 54.5 28t29.5 95l180 1012q7 45 7 70q0 17 -3 25q-8 20 -45 27l-90 19l12 61h553q277 0 438.5 -143t161.5 -408q0 -201 -64 -366t-176 -274t-262.5 -168.5t-324.5 -59.5h-580zM395 285q-12 -57 -12 -96q0 -45 16 -65q29 -38 150 -38 q130 0 232 41.5t170 115t112 180t63 230t19 271.5q0 207 -91 308t-298 101q-114 0 -181 -18z" />
<glyph unicode="E" horiz-adv-x="1236" d="M-33 0l13 63l96 19q38 8 54.5 29.5t29.5 93.5l180 1012q8 47 8 72q0 15 -3 22q-7 20 -46 28l-90 19l12 61h987l-2 -362h-69q-58 157 -78 192q-33 52 -80.5 66t-185.5 14q-144 0 -218 -18l-94 -527h94q107 0 150.5 10.5t71.5 51.5q28 42 69 143h72l-88 -508h-70 q-5 92 -18 146q-12 42 -54 52.5t-182 10.5h-61l-68 -379q-9 -54 -12.5 -84.5t1.5 -59t17 -41t40.5 -22t65.5 -12t99 -2.5q144 0 201 17t104 67q84 93 174 254h78l-121 -428h-1077z" />
<glyph unicode="F" horiz-adv-x="1179" d="M-33 0l13 63l96 19q38 8 54.5 29.5t29.5 93.5l180 1012q8 47 8 72q0 15 -3 22q-7 20 -46 28l-90 19l12 61h998l2 -383h-76q-43 141 -88 217q-30 50 -81.5 63t-197.5 13q-121 0 -203 -14l-98 -555h53q140 0 183.5 8t68.5 39q37 44 92 164h70l-96 -529h-70q-3 90 -28 181 q-9 30 -51 36.5t-199 6.5h-41l-80 -461q-8 -50 -8 -75q0 -14 2 -20q6 -20 47 -26l117 -21l-13 -63h-557z" />
<glyph unicode="G" horiz-adv-x="1376" d="M92 545q0 141 32 267t89 223.5t134.5 175.5t168 128.5t189.5 77.5t200 27q231 0 391 -55l-34 -392h-70q-49 196 -86 260q-19 29 -32 44t-37 28.5t-59.5 18t-92.5 4.5q-163 0 -291.5 -107t-201.5 -307t-73 -461q0 -199 89 -304t299 -105q127 0 217 55l47 283q9 43 9 67 q0 16 -4 25q-9 22 -61 32l-77 17l12 63h512l-12 -63l-72 -17q-42 -10 -58.5 -31t-29.5 -93l-62 -359q-188 -72 -432 -72q-132 0 -241.5 35t-191 103.5t-126.5 178.5t-45 253z" />
<glyph unicode="H" horiz-adv-x="1486" d="M-33 0l13 63l96 19q38 8 54.5 29.5t29.5 93.5l180 1012q8 47 8 72q0 15 -3 22q-7 20 -46 28l-90 19l12 61h535l-13 -61l-100 -19q-40 -8 -55.5 -28.5t-28.5 -93.5l-82 -447h617l80 447q7 44 7 69q0 17 -3 25q-8 20 -48 28l-92 19l13 61h534l-12 -61l-96 -19 q-39 -8 -55 -29t-29 -93l-181 -1012q-8 -47 -8 -73q0 -14 2 -22q6 -22 47 -28l90 -19l-12 -63h-534l12 63l98 19q41 8 57 29t29 94l84 471h-616l-82 -471q-9 -49 -9 -74q0 -13 2 -21q6 -22 48 -28l94 -19l-12 -63h-535z" />
<glyph unicode="I" horiz-adv-x="669" d="M-33 0l13 63l104 19q40 8 55.5 29t28.5 94l180 1012q8 47 8 72q0 15 -3 22q-7 20 -46 28l-98 19l12 61h547l-12 -61l-105 -19q-37 -6 -53.5 -28t-30.5 -94l-178 -1012q-10 -50 -10 -76q1 -13 3 -19q6 -22 46 -28l98 -19l-12 -63h-547z" />
<glyph unicode="J" horiz-adv-x="624" d="M-285 -186q0 42 32 71t83 29q56 0 76 -25t28 -96q3 -25 13 -34t33 -9q50 0 82.5 47t54.5 172l223 1248q8 47 8 72q0 15 -3 22q-7 20 -46 28l-92 19l12 61h533l-13 -61l-96 -19q-40 -8 -55.5 -28.5t-28.5 -93.5l-199 -1086q-38 -210 -150 -337.5t-280 -127.5 q-99 0 -157 43.5t-58 104.5z" />
<glyph unicode="K" horiz-adv-x="1312" d="M-33 0l13 63l96 19q38 8 54.5 29.5t29.5 93.5l180 1012q8 47 8 72q0 15 -3 22q-7 20 -46 28l-90 19l12 61h535l-13 -61l-100 -19q-40 -8 -55.5 -28.5t-28.5 -93.5l-180 -1012q-9 -49 -9 -74q0 -13 2 -21q6 -22 48 -28l94 -19l-12 -63h-535zM535 719l6 26l430 418l18 18 q47 46 59.5 64t12.5 43q0 39 -74 58l-49 12l14 61h457l-12 -61l-41 -10q-52 -13 -99.5 -46t-123.5 -106l-408 -393q149 -355 336 -672q20 -35 90 -51l78 -17l-12 -63h-326q-172 266 -356 719z" />
<glyph unicode="L" horiz-adv-x="1173" d="M-33 0l13 63l96 19q38 8 54.5 29.5t29.5 93.5l180 1012q8 47 8 72q0 15 -3 22q-7 20 -46 28l-90 19l12 61h543l-12 -61l-109 -21q-41 -8 -56 -27.5t-28 -92.5l-164 -926q-9 -45 -12 -73.5t1 -53.5t16 -38t36.5 -22.5t58.5 -12.5t87 -3q131 0 185 18.5t110 77.5 q66 69 170 267h73l-108 -451h-1045z" />
<glyph unicode="M" horiz-adv-x="1708" d="M-33 0l13 63l73 15q46 8 72.5 42t40.5 120l174 977q8 47 8 72q0 15 -3 22q-7 20 -46 28l-90 19l12 61h424l174 -1083h6l547 1083h434l-14 -61l-98 -19q-40 -8 -56.5 -29t-29.5 -93l-181 -1012q-8 -46 -8 -72q0 -15 3 -23q7 -22 48 -28l93 -19l-11 -63h-516l11 63l86 19 q40 8 56.5 29.5t29.5 93.5l190 1065h-8l-629 -1237h-104l-201 1237h-8l-189 -1045q-7 -42 -7 -69.5t7 -42.5q14 -29 74 -39l53 -11l-10 -63h-420z" />
<glyph unicode="N" horiz-adv-x="1398" d="M-33 0l13 63l73 15q36 7 54.5 19t33 45t25.5 98l174 977q8 47 8 72q0 15 -3 22q-7 20 -46 28l-90 19l12 61h400l446 -1050h6l148 827q7 44 7 73q0 26 -6 39q-12 27 -61 35l-88 15l14 61h431l-13 -61l-65 -15q-50 -11 -73.5 -42t-39.5 -125l-215 -1184h-106l-543 1268h-6 l-187 -1035q-6 -39 -6 -66q0 -33 8 -47q16 -28 80 -38l66 -11l-10 -63h-441z" />
<glyph unicode="O" d="M92 551q0 189 66 358.5t172.5 285.5t242.5 183.5t275 67.5q232 0 383 -160.5t151 -425.5q0 -188 -63 -355t-167 -282t-238 -181.5t-275 -66.5q-113 0 -212 39.5t-173.5 111.5t-118 182t-43.5 243zM322 494q0 -91 15 -161.5t50 -131.5t102 -94t162 -33q117 0 213.5 70.5 t158.5 189.5t96 273t34 325q0 414 -311 414q-97 0 -181.5 -47t-145.5 -128.5t-105 -190t-66 -232.5t-22 -254z" />
<glyph unicode="P" horiz-adv-x="1196" d="M-33 0l13 63l96 19q38 6 54.5 28t29.5 95l180 1012q9 40 9 64q-1 5 -1 10q-2 25 -8 31t-25 11l-106 25l12 61h535q226 0 347.5 -98t121.5 -277q0 -211 -135 -347t-338 -136q-57 0 -98 7t-56.5 13.5t-36.5 18.5l10 62q44 -5 84 -5q351 0 351 420q0 137 -62.5 194.5 t-204.5 57.5q-103 0 -164 -14l-196 -1110q-9 -51 -9 -77q0 -14 2 -20q7 -20 48 -26l117 -19l-13 -63h-557z" />
<glyph unicode="Q" d="M92 549q0 128 30 248.5t83 218t125.5 179t156 136.5t176 85t185.5 30q113 0 210.5 -41t169.5 -115.5t113 -185.5t41 -244q0 -169 -50.5 -321.5t-136 -262.5t-196.5 -183t-233 -95v-6q77 -74 160 -131q136 -90 278 -90q64 0 152 34l-4 -55q-49 -38 -123 -65t-162 -27 q-97 0 -171 26t-153 85q-96 72 -249 225q-179 43 -290.5 190t-111.5 365zM322 494q0 -91 15 -161.5t50 -131.5t102 -94t162 -33q117 0 213.5 70.5t158.5 189.5t96 273t34 325q0 414 -311 414q-97 0 -181.5 -47t-145.5 -128.5t-105 -190t-66 -232.5t-22 -254z" />
<glyph unicode="R" horiz-adv-x="1306" d="M-33 0l13 63l96 19q38 8 54.5 29.5t29.5 93.5l180 1012q8 47 8 72q0 15 -3 22q-7 20 -46 28l-90 19l12 61h514q114 0 202.5 -28t142 -76.5t81 -110.5t27.5 -133q0 -140 -90.5 -240.5t-257.5 -138.5v-12q130 -340 254 -543q15 -24 34 -37.5t56 -23.5l59 -13l-12 -63h-303 q-150 250 -287 641h-184l-78 -436q-9 -49 -9 -74q0 -13 2 -21q6 -22 48 -28l94 -19l-12 -63h-535zM475 743q55 -8 127 -8q195 0 280 87t85 286q0 127 -56.5 174t-197.5 47q-73 0 -138 -14z" />
<glyph unicode="S" horiz-adv-x="1056" d="M10 76l27 346h78q35 -139 80 -223q34 -65 86 -95t157 -30q150 0 225.5 70t75.5 182q0 89 -60 163t-208 168q-144 94 -208 183t-64 202q0 123 68 216.5t171.5 139.5t220.5 46q222 0 347 -66l-21 -317h-70q-32 114 -69 180q-29 54 -71 80.5t-130 26.5q-122 0 -200 -62.5 t-78 -175.5q0 -70 53 -134.5t182 -146.5q174 -114 248 -213.5t74 -220.5q0 -95 -41.5 -175t-110.5 -133t-158.5 -82.5t-185.5 -29.5q-124 0 -236.5 30t-181.5 71z" />
<glyph unicode="T" horiz-adv-x="1226" d="M125 985l96 434h1092l-47 -434h-74q-4 24 -11.5 75.5t-11 71.5t-10.5 51.5t-16 57.5q-15 42 -32.5 59t-64 25t-147.5 8h-33l-200 -1128q-9 -49 -9 -74q1 -13 3 -21q6 -22 47 -28l96 -19l-15 -63h-540l12 63l100 19q42 8 57.5 28.5t28.5 94.5l201 1128h-31 q-138 0 -181.5 -14.5t-92.5 -77.5q-26 -33 -51.5 -76.5t-40 -73t-51.5 -106.5h-74z" />
<glyph unicode="U" horiz-adv-x="1392" d="M184 1358l13 61h526l-12 -61l-95 -19q-41 -8 -56 -28t-28 -94l-131 -734q-13 -71 -13 -129q0 -114 50 -176q74 -94 273 -94q93 0 158.5 23.5t108 73t67 111.5t40.5 152l134 752q7 37 7.5 62t-3.5 41t-15.5 25.5t-25.5 14t-37 7.5l-78 12l16 61h443l-15 -61l-73 -15 q-46 -8 -71.5 -37.5t-39.5 -109.5l-141 -780q-79 -441 -506 -441q-134 0 -235 31t-169 96q-68 64 -90 164q-11 49 -12 108q0 60 12 130l127 713q8 47 8 72q0 15 -3 22q-7 20 -46 28z" />
<glyph unicode="V" horiz-adv-x="1316" d="M147 1358l15 61h497l-12 -61l-59 -15q-42 -10 -63 -29t-21 -54q0 -44 12 -123l133 -867h10l447 867q55 104 55 145q0 26 -14.5 39.5t-48.5 21.5l-62 15l13 61h421l-14 -61l-35 -12q-51 -12 -87 -51.5t-101 -161.5l-604 -1133h-140l-194 1155q-19 108 -36 142t-60 46z" />
<glyph unicode="W" horiz-adv-x="1882" d="M152 1358l12 61h498l-13 -61l-65 -15q-46 -9 -65 -31.5t-19 -64.5q0 -14 2 -32t5.5 -41.5t4.5 -36.5l90 -844h10l396 778l-11 109q-10 90 -28 120t-62 43l-51 15l14 61h494l-12 -61l-68 -15q-84 -17 -84 -106q0 -44 8 -107l90 -837h13l395 868q35 80 35 121 q0 27 -14.5 42t-47.5 22l-51 12l14 61h408l-14 -61l-56 -15q-50 -10 -76 -44t-83 -156l-543 -1143h-137l-103 905h-6l-463 -905h-135l-141 1180q-5 38 -8.5 63t-11 43t-11 26.5t-16 15.5t-17.5 8.5t-24 6.5z" />
<glyph unicode="X" horiz-adv-x="1349" d="M-45 0l16 63l37 9q57 12 93.5 41t115.5 127l379 458l-236 498q-38 82 -58.5 110t-61.5 40l-41 12l12 61h512l-12 -61l-76 -15q-60 -10 -60 -63q0 -42 29 -106l158 -343h6l262 363q43 60 43 104q0 38 -47 48l-53 12l12 61h414l-15 -61l-43 -10q-48 -11 -82 -42.5 t-108 -127.5l-342 -435l238 -505q43 -91 66.5 -122t68.5 -42l41 -11l-11 -63h-505l10 63l53 9q74 10 74 63q0 40 -31 109l-170 372h-6l-299 -393q-8 -10 -23.5 -29t-22.5 -28.5t-13.5 -22.5t-6.5 -24q0 -38 56 -47l43 -9l-13 -63h-403z" />
<glyph unicode="Y" horiz-adv-x="1214" d="M150 1358l12 61h516l-14 -61l-54 -12q-52 -11 -75 -28t-23 -48q0 -27 23 -109l141 -467h10l291 434q41 61 57.5 94t16.5 58q0 55 -70 68l-49 10l14 61h428l-12 -61l-49 -15q-53 -18 -96 -59.5t-117 -150.5l-373 -551l-68 -377q-9 -40 -9 -65v-8q2 -26 12.5 -35.5 t39.5 -14.5l93 -19l-13 -63h-542l12 63l102 19q41 8 57 29t29 94l66 362l-191 594q-31 98 -53.5 134t-62.5 48z" />
<glyph unicode="Z" horiz-adv-x="1124" d="M-35 0l17 82l968 1241v8h-110q-108 0 -166 -2t-106.5 -6t-74.5 -16t-45 -27t-42 -43q-15 -17 -27.5 -34.5t-28.5 -44t-23.5 -40t-30 -54.5t-30.5 -56h-71l84 411h940l-19 -82l-962 -1241v-8h116q184 0 267 7t121.5 23.5t76.5 57.5q11 12 21 24t22 30.5t19.5 30t23 39 t22.5 40t28 50.5t30 54h76l-86 -444h-1010z" />
<glyph unicode="[" horiz-adv-x="716" d="M72 -266l317 1769h430l-12 -61l-182 -23q-52 -6 -70 -28.5t-31 -100.5l-239 -1343q-16 -76 -7 -99.5t60 -29.5l178 -23l-14 -61h-430z" />
<glyph unicode="\" horiz-adv-x="776" d="M205 1503h112l326 -1769h-113z" />
<glyph unicode="]" horiz-adv-x="716" d="M-72 -266l13 61l188 23q52 6 68 27.5t30 101.5l240 1343q16 76 7.5 99.5t-58.5 29.5l-183 23l13 61h428l-318 -1769h-428z" />
<glyph unicode="^" horiz-adv-x="837" d="M184 1008l334 432h74l242 -436l-48 -37l-251 266l-314 -266z" />
<glyph unicode="_" horiz-adv-x="675" d="M-154 -369l19 115h694l-18 -115h-695z" />
<glyph unicode="`" horiz-adv-x="1064" d="M410 1440q0 33 25 60.5t59 27.5q31 0 79 -31l334 -233l-22 -50l-400 132q-75 24 -75 94z" />
<glyph unicode="a" horiz-adv-x="1128" d="M41 246q0 134 41 263.5t108 229t150 176.5t171.5 117.5t166.5 40.5q65 0 110.5 -10.5t64 -21t50.5 -35.5h8l103 77l41 -14q-39 -81 -86 -319l-95 -504q-8 -54 -8 -74q0 -32 29 -32t88 32l45 29l31 -47q-97 -89 -168.5 -130.5t-145.5 -41.5q-45 0 -65.5 32t-20.5 76 q0 70 25 172h-8q-202 -289 -408 -289q-106 0 -166.5 77t-60.5 196zM240 264q0 -80 27.5 -121t78.5 -41q38 0 80.5 22t74 47.5t77.5 78.5t67 79.5t66 86.5l96 473q-39 100 -143 100q-97 0 -195 -98t-163.5 -268.5t-65.5 -358.5z" />
<glyph unicode="b" horiz-adv-x="1110" d="M70 94v10l245 1233q5 24 5 41q0 18 -6 28q-10 20 -50 36l-86 35l10 57l355 33l18 -17q-34 -112 -57 -239l-66 -344q-5 -29 -18 -79t-23 -85l-10 -35h8q37 46 68.5 81t79 79.5t91 74t97.5 50t105 20.5q100 0 164.5 -81t64.5 -208q0 -175 -56.5 -329.5t-147.5 -258 t-206.5 -163.5t-232.5 -60q-227 0 -352 121zM266 143q26 -37 75 -60.5t114 -23.5q80 0 153.5 52t130 143.5t90 228t33.5 295.5q0 85 -26.5 121.5t-79.5 36.5q-42 0 -95.5 -28.5t-107 -76t-99 -95t-87.5 -99.5z" />
<glyph unicode="c" horiz-adv-x="925" d="M53 281q0 135 38 260.5t102 220t145.5 166t171 108.5t174.5 37q122 0 190 -45t68 -113q0 -116 -104 -116q-58 0 -86.5 29t-34.5 106q-3 33 -15.5 44t-46.5 11q-96 0 -189 -96t-152.5 -255t-59.5 -329q0 -223 184 -223q134 0 322 170l43 -51q-206 -234 -447 -234 q-135 0 -219 89t-84 221z" />
<glyph unicode="d" horiz-adv-x="1161" d="M43 262q0 160 63.5 313t160.5 260t213.5 172.5t221.5 65.5q104 0 160 -29h8q11 74 25 154l29 139q4 24 4 40q0 20 -6 30q-10 19 -50 35l-88 35l11 57l360 33l19 -17q-33 -108 -58 -239l-211 -1065q-10 -42 -10 -74q0 -22 13 -30t40 -1t66 31l43 29l30 -47 q-97 -89 -168.5 -130.5t-144.5 -41.5q-43 0 -63.5 32.5t-20.5 75.5q0 68 27 178h-8q-38 -54 -82 -101.5t-99 -93.5t-118.5 -73t-124.5 -27q-110 0 -176 79t-66 210zM242 281q0 -92 32.5 -135.5t85.5 -43.5q38 0 81.5 21.5t80 51t80.5 77.5t72 83.5t67 86.5l95 463 q-35 104 -148 104q-106 0 -209.5 -100.5t-170 -266.5t-66.5 -341z" />
<glyph unicode="e" horiz-adv-x="933" d="M53 281q0 134 43.5 260.5t114.5 221t157.5 166.5t175 109t165.5 37q113 0 172 -56.5t59 -152.5q0 -88 -90.5 -174t-243 -154.5t-344.5 -111.5q-8 -52 -8 -117q0 -108 48 -167.5t132 -59.5q44 0 84 11t85.5 39.5t71 47t83.5 64.5l43 -49q-209 -224 -445 -224 q-140 0 -221.5 88t-81.5 222zM276 512q249 64 365 160q102 83 102 211q0 53 -21.5 80.5t-59.5 27.5q-102 0 -220 -140t-166 -339z" />
<glyph unicode="f" horiz-adv-x="653" d="M-291 -338q0 38 26 65t64 27q44 0 68.5 -22.5t36.5 -75.5q5 -20 11 -27.5t19 -7.5q29 0 47 9.5t34.5 32.5t30 76.5t27 124t33.5 193.5l138 879h-135l10 59l141 47l2 15q34 252 165 383t316 131q93 0 141 -32t48 -85q0 -49 -29 -80t-72 -31q-55 0 -80 25.5t-30 77.5 q-3 31 -11 41t-26 10q-38 0 -66.5 -15t-56.5 -54t-51 -116t-41 -192l-12 -78h248l-27 -106h-240l-100 -627q-67 -413 -175.5 -590.5t-273.5 -177.5q-84 0 -132 30.5t-48 90.5z" />
<glyph unicode="g" horiz-adv-x="1040" d="M-106 -193q0 95 85.5 165.5t215.5 111.5v8q-99 34 -99 141q0 65 54.5 120.5t128.5 90.5v5q-57 29 -98.5 89t-41.5 134q0 94 39 172t101.5 126.5t137.5 75.5t150 27q128 0 217 -55q143 125 260 125q49 0 78 -25.5t29 -64.5q0 -54 -26 -81.5t-68 -27.5q-11 0 -20.5 2 t-17.5 7t-13 8t-10.5 12t-7.5 12t-7 13.5t-6 11.5q-9 15 -29 15q-13 0 -30 -5q-45 -16 -80 -53v-6q40 -39 57.5 -81t17.5 -104q0 -95 -39 -171.5t-102 -122.5t-137 -70.5t-150 -24.5q-72 0 -141 27q-32 -17 -57 -47t-25 -70q0 -75 88 -80l213 -12q157 -9 240.5 -76 t83.5 -184q0 -81 -37 -153.5t-105.5 -128.5t-174.5 -89t-236 -33q-177 0 -307.5 74.5t-130.5 191.5zM78 -184q0 -90 69 -140.5t205 -50.5q168 0 262.5 72t94.5 180q0 73 -37 113t-131 49l-258 24q-78 -32 -141.5 -95.5t-63.5 -151.5zM328 627q0 -160 157 -160q106 0 172 98 t66 260q0 80 -40.5 124t-117.5 44q-103 0 -170 -106t-67 -260z" />
<glyph unicode="h" horiz-adv-x="1169" d="M63 0l277 1337q5 24 5 41q1 18 -5 28q-10 20 -49 36l-88 35l10 57l354 33l19 -17q-33 -110 -58 -239l-69 -344q-16 -84 -51 -217h10q132 154 245 238.5t216 84.5q79 0 121 -50t42 -130t-28 -203l-105 -446q-10 -58 -10 -72q0 -25 11 -34t38.5 -1.5t73.5 35.5l43 29 l33 -47q-101 -91 -171.5 -131.5t-150.5 -40.5q-40 0 -65 27.5t-25 68.5q0 16 1 31.5t4.5 34t5.5 29t8 34.5t8 35l100 434q23 100 27 153q1 12 1 23q-1 35 -11 52q-14 22 -48 22q-124 0 -383 -291l-139 -635h-197z" />
<glyph unicode="i" horiz-adv-x="585" d="M82 879q200 194 326 194q37 0 55 -23.5t18 -62.5q0 -73 -37 -221l-127 -522q-10 -42 -10 -72q0 -35 30.5 -35t92.5 35l51 33l31 -47q-100 -91 -173.5 -133.5t-154.5 -42.5q-40 0 -64 27.5t-24 68.5q0 66 25 164l137 551q14 72 14 79q0 30 -25 30q-15 0 -39 -11 q-20 -10 -48 -27l-47 -28zM291 1391q0 54 39.5 92.5t97.5 38.5q57 0 96 -38.5t39 -92.5q0 -51 -39.5 -91t-95.5 -40q-57 0 -97 40t-40 91z" />
<glyph unicode="j" horiz-adv-x="569" d="M-307 -332q0 49 25.5 76t66.5 27q53 0 78 -24t37 -87q8 -47 32 -47q49 0 91.5 60t66.5 200l168 920q2 13 6 30.5t6 29t2 19.5q0 31 -24 31q-8 0 -20 -4q-25 -9 -68 -35l-47 -28l-31 43q200 194 326 194q37 0 55 -23.5t18 -62.5q0 -57 -32 -221l-136 -690 q-30 -151 -76.5 -259.5t-104.5 -167.5t-119 -85.5t-130 -26.5q-90 0 -140 38.5t-50 92.5zM291 1391q0 54 39.5 92.5t97.5 38.5q57 0 96 -38.5t39 -92.5q0 -51 -39.5 -91t-95.5 -40q-57 0 -97 40t-40 91z" />
<glyph unicode="k" horiz-adv-x="1064" d="M63 0l277 1337q5 24 5 41q1 18 -5 28q-10 20 -49 36l-88 35l10 57l354 33l19 -17q-31 -110 -58 -239l-268 -1311h-197zM422 541v26q193 281 316 393.5t229 112.5q49 0 82.5 -30.5t33.5 -92.5q0 -52 -27 -81t-69 -29q-38 0 -59.5 23.5t-30.5 47t-18 23.5q-47 0 -137.5 -92 t-166.5 -199q69 -179 170 -403q43 -91 77 -103q7 -2 15 -2q32 0 85 37l47 31l35 -49q-102 -92 -165.5 -132t-121.5 -40q-64 0 -129 151q-65 139 -166 408z" />
<glyph unicode="l" horiz-adv-x="587" d="M94 78q0 20 2.5 42t5 36.5t8.5 42.5t9 43l215 1095q4 24 4 41q0 20 -5 30q-10 20 -48 34l-95 35l11 57l360 33l19 -17q-33 -110 -58 -239l-203 -1067q-10 -58 -10 -72q0 -35 31 -35q33 0 100 39l45 29l31 -47q-100 -92 -176 -134t-158 -42q-40 0 -64 27.5t-24 68.5z" />
<glyph unicode="m" horiz-adv-x="1730" d="M86 0l172 793q14 68 14 81q0 36 -32 29q-26 -6 -82 -39l-41 -24l-29 43q102 101 171.5 145.5t133.5 44.5q37 0 56.5 -24t19.5 -62q0 -66 -37 -229h10q142 155 202 207q124 108 226 108q76 0 116 -50t40 -130q0 -72 -10 -123h8q61 68 92.5 102.5t80 80.5t82 67t76.5 37 t85 16q77 0 118 -50t41 -130q0 -66 -28 -203l-101 -446q-10 -57 -10 -72q0 -35 31 -35t92 35l45 29l31 -47q-98 -90 -169.5 -131t-152.5 -41q-40 0 -64 27.5t-24 68.5q0 51 25 164l96 434q28 125 28 181q0 10 -1 18q-6 51 -56 51q-41 0 -104.5 -46.5t-103.5 -87.5t-119 -127 q-10 -11 -15 -16l-143 -649h-199l150 676q22 100 25 153q1 9 1 18q0 39 -12 57q-14 22 -49 22q-15 0 -32 -5t-37 -17.5t-36.5 -23t-41 -32.5t-39.5 -35.5t-42.5 -42t-39.5 -41.5t-41.5 -44.5t-38.5 -41.5l-139 -643h-199z" />
<glyph unicode="n" horiz-adv-x="1191" d="M86 0l172 793q14 68 14 81q0 36 -32 29q-26 -6 -82 -39l-41 -24l-29 43q102 101 171.5 145.5t133.5 44.5q37 0 56.5 -24t19.5 -62q0 -65 -39 -237h10q137 157 246.5 240t216.5 83q79 0 120.5 -50t41.5 -130q0 -75 -29 -203l-104 -446q-10 -58 -10 -72q0 -25 10.5 -34 t38 -1.5t73.5 35.5l43 29l33 -47q-101 -91 -171 -131.5t-150 -40.5q-40 0 -64 27.5t-24 68.5q0 56 24 164l101 434q28 125 28 181q0 10 -1 18q-6 51 -56 51q-72 0 -177 -86.5t-208 -204.5l-137 -635h-199z" />
<glyph unicode="o" horiz-adv-x="1085" d="M57 391q0 128 36.5 241t96 192.5t135 137t155 85.5t155.5 28q124 0 215 -58.5t134.5 -151t43.5 -203.5q0 -132 -36 -246.5t-95 -194.5t-134.5 -137.5t-154.5 -85t-155 -27.5q-96 0 -173 34t-124.5 92.5t-73 133.5t-25.5 160zM258 313q0 -125 49 -190.5t146 -65.5 q111 0 197.5 97t131.5 250.5t45 330.5q0 123 -50.5 189.5t-145.5 66.5q-109 0 -195.5 -94t-132 -248t-45.5 -336z" />
<glyph unicode="p" horiz-adv-x="1163" d="M-129 -449l10 60l88 22q35 8 50.5 28.5t27.5 78.5l211 1053q14 77 14 81q0 36 -32 29q-26 -6 -82 -39l-41 -24l-29 43q102 101 171.5 145.5t133.5 44.5q37 0 57.5 -24t20.5 -62q0 -79 -37 -223h8q38 47 70.5 83t81 81t92 74.5t97.5 50t104 20.5q105 0 168 -82.5 t63 -218.5q0 -172 -52.5 -323.5t-139 -254.5t-198 -162t-228.5 -59q-136 0 -209 39q-9 -68 -23 -131l-26 -141q-8 -45 -8 -67q0 -10 2 -16q5 -18 38 -24l107 -22l-12 -60h-498zM328 170q76 -111 194 -111q110 0 200 91.5t141.5 256.5t51.5 371q0 84 -27 121t-79 37 q-42 0 -95.5 -28.5t-107 -76t-99 -95t-87.5 -99.5z" />
<glyph unicode="q" horiz-adv-x="1095" d="M43 262q0 160 63.5 313t160.5 260t213.5 172.5t221.5 65.5q89 0 143 -16.5t105 -50.5h8l95 77l41 -14q-37 -88 -86 -319l-222 -1010q-9 -42 -9 -66q0 -10 1 -16q6 -23 39 -29l88 -18l-14 -60h-498l15 60l102 24q40 10 55 26.5t29 78.5l59 276q11 51 24.5 100t29 102 t18.5 63h-8q-37 -55 -83 -106.5t-102 -98.5t-121 -75t-126 -28q-110 0 -176 79t-66 210zM242 281q0 -91 32.5 -135t85.5 -44q38 0 81.5 21.5t80 51t80.5 77.5t72 83.5t67 86.5l95 463q-22 46 -55.5 75t-92.5 29q-79 0 -160 -61t-144 -158t-102.5 -227.5t-39.5 -261.5z" />
<glyph unicode="r" horiz-adv-x="909" d="M86 0l172 793q14 68 14 81q0 36 -32 29q-26 -6 -82 -39l-41 -24l-29 43q102 101 171.5 145.5t133.5 44.5q37 0 56.5 -24t19.5 -62q0 -71 -53 -305h10q38 63 68.5 109.5t74 103t82.5 92.5t85.5 61t90.5 25q54 0 87.5 -28.5t33.5 -83.5q0 -56 -33 -90.5t-79 -34.5 q-35 0 -58.5 14t-39.5 28.5t-33 14.5q-39 0 -124.5 -104.5t-181.5 -262.5l-114 -526h-199z" />
<glyph unicode="s" horiz-adv-x="815" d="M-12 154q0 98 100 98q51 0 75.5 -26t47.5 -107q8 -31 35.5 -44.5t91.5 -13.5q85 0 145 43.5t60 114.5q0 57 -46.5 115t-152.5 145q-100 84 -145 149t-45 144q0 93 54.5 163t137.5 104t178 34q135 0 208 -50.5t73 -117.5q0 -90 -90 -90q-53 0 -78 31t-43 94q-10 29 -32 40 t-64 11q-81 0 -134 -37t-53 -104q0 -58 39.5 -113.5t149.5 -138.5q200 -148 200 -313q0 -90 -53.5 -161.5t-141 -109t-190.5 -37.5q-160 0 -243.5 53.5t-83.5 123.5z" />
<glyph unicode="t" horiz-adv-x="679" d="M96 109q0 40 19 133l153 694h-151l10 59l162 45l37 170l153 78h60l-54 -246h236l-25 -106h-233l-144 -657q-18 -83 -18 -105q0 -46 35 -46h1q47 1 171 81l49 31l37 -43q-121 -113 -214 -165t-173 -52q-111 0 -111 129z" />
<glyph unicode="u" horiz-adv-x="1185" d="M78 883q102 100 173 145t136 45q41 0 62.5 -31t21.5 -77q0 -51 -25 -164l-100 -434q-23 -100 -27 -153q-1 -12 -1 -23q0 -35 10 -52q14 -22 49 -22q120 0 379 291l135 634h199l-175 -798q-10 -58 -10 -72q0 -24 12 -33t39.5 -1t71.5 34l43 29l31 -47q-202 -185 -320 -185 q-37 0 -59.5 30t-22.5 69q0 72 45 225h-10q-68 -78 -119 -130t-109.5 -99.5t-114.5 -71t-111 -23.5q-79 0 -121.5 50.5t-42.5 130.5q0 79 28 202l107 449q12 50 12 73q0 31 -24 31q-9 0 -21 -4q-26 -9 -72 -37l-38 -24z" />
<glyph unicode="v" horiz-adv-x="970" d="M8 883q180 190 297 190q50 0 74.5 -50.5t36.5 -174.5q24 -229 24 -557v-74h9q147 163 255.5 335t108.5 249q0 45 -30.5 94.5t-30.5 87.5q0 39 31.5 65.5t74.5 26.5q60 0 92.5 -34.5t32.5 -96.5q0 -144 -191 -431t-423 -513h-107q0 483 -37 786q-8 70 -21 96.5t-38 23 t-76 -37.5l-51 -30z" />
<glyph unicode="w" horiz-adv-x="1462" d="M8 883q180 190 299 190q49 0 71 -49.5t34 -175.5q30 -289 30 -584v-37h9q194 240 337 484q-4 96 -6 118q-6 71 -32 81q-5 2 -11 2q-27 0 -80 -33l-47 -29l-32 45q70 73 147.5 125.5t130.5 52.5q52 0 76.5 -51.5t30.5 -173.5q6 -134 6 -291t-6 -338h8q141 156 236.5 325.5 t95.5 256.5q0 45 -32 94.5t-32 87.5q0 39 32.5 65.5t78.5 26.5q58 0 90.5 -34.5t32.5 -96.5q0 -146 -179.5 -432.5t-404.5 -511.5h-96q1 84 3 224t2 187.5t-1 155.5h-4q-87 -139 -204 -295t-222 -272h-107q0 483 -37 786q-11 100 -37 114q-6 3 -15 4q-28 0 -83 -36l-51 -30z " />
<glyph unicode="x" horiz-adv-x="1028" d="M-35 84q0 49 27 75.5t71 26.5q23 0 49 -10t42 -19t35 -6t36 27q95 119 193 367q-26 107 -68 254q-10 34 -16.5 53t-15.5 34t-18 19t-24.5 1.5t-32.5 -11.5t-44 -27l-52 -30l-30 45q180 190 293 190q17 0 30.5 -7.5t22 -17t17.5 -32t14.5 -39t14.5 -51.5q2 -7 3 -11 q12 -43 21 -82t21 -100t21 -102h7q39 99 89 191t89 141q83 110 190 110q51 0 81 -27.5t30 -76.5q0 -47 -27.5 -76t-70.5 -29q-27 0 -58.5 14t-53.5 14t-48 -28q-88 -93 -187 -340q38 -150 70 -268q11 -39 18 -60.5t18 -37t18 -19.5t25.5 -0.5t33.5 11.5t47 26l51 29l33 -51 q-95 -87 -164.5 -129.5t-128.5 -42.5q-43 0 -68.5 40t-50.5 142q-32 125 -59 274h-6q-35 -101 -90 -204.5t-99 -157.5q-79 -101 -176 -101q-60 0 -91.5 28t-31.5 81z" />
<glyph unicode="y" horiz-adv-x="1007" d="M-162 -362q0 51 26.5 78.5t67.5 27.5q30 0 54 -11t36.5 -25t30.5 -25t39 -11q43 0 121.5 60t179.5 180q-81 663 -131 856q-31 112 -58 128q-7 3 -16 3q-26 0 -71 -33l-49 -32l-33 49q180 190 280 190q43 0 71 -30t48 -115q77 -335 115 -795h10q129 187 212 364.5 t83 280.5q0 48 -33 104.5t-33 98.5q0 40 30 67t77 27q57 0 91 -35t34 -96q0 -140 -120 -400t-302 -507q-176 -243 -334 -377.5t-284 -134.5q-68 0 -105 32t-37 81z" />
<glyph unicode="z" horiz-adv-x="929" d="M-68 45v25q145 103 252 213l502 528q-64 7 -123 27.5t-95 41t-85 36.5t-98 16q-17 0 -27 -8t-10 -19q0 -10 19 -24.5t38 -35.5t19 -46q0 -38 -27.5 -65t-69.5 -27q-48 0 -74 30.5t-26 73.5q0 34 23 78.5t60.5 85.5t94.5 69.5t117 28.5q53 0 106 -28t87.5 -61t71.5 -61 t61 -28q28 0 53.5 43t54.5 133h27l110 -74v-26q-63 -43 -110.5 -83t-120.5 -116l-504 -539q76 -6 151 -28t128.5 -41t85.5 -19q38 0 77.5 30t96.5 110l47 -31q-34 -59 -55 -93t-52.5 -77t-57 -66t-58.5 -39t-68 -16q-44 0 -84.5 19t-72 46l-63 54t-69.5 46t-78 19 q-36 0 -66 -41.5t-63 -134.5h-24z" />
<glyph unicode="{" horiz-adv-x="696" d="M78 614l14 78q82 1 136 14t79.5 36.5t35 48t9.5 57.5q0 44 -13 192.5t-13 208.5q0 72 20 117t74.5 75t139.5 43.5t224 18.5l-12 -61q-66 -9 -102 -15t-70.5 -18.5t-48.5 -26t-26 -41t-14.5 -59t-2.5 -84.5q0 -61 4 -155t4 -144q0 -41 -5.5 -70t-23.5 -58t-50 -50 t-86.5 -39.5t-131.5 -32.5v-8q118 -30 169.5 -76.5t51.5 -115.5q0 -50 -38.5 -149t-77.5 -205t-39 -173q0 -43 45 -68.5t172 -60.5l-15 -59q-216 36 -301.5 82t-85.5 133q0 56 48 168t96.5 217.5t48.5 146.5q0 50 -46 82t-169 51z" />
<glyph unicode="|" horiz-adv-x="507" d="M229 -266v1769h117v-1769h-117z" />
<glyph unicode="}" horiz-adv-x="696" d="M-57 -266l14 61q66 9 101.5 15t69.5 18.5t48 26t26 41t14.5 59t2.5 84.5q0 61 -4 159t-4 148q0 52 10 86t40 66.5t90.5 55.5t156.5 40v8q-117 30 -169 78t-52 117q0 50 38.5 147t77.5 200.5t39 170.5q0 43 -44 68.5t-171 60.5l13 59q216 -36 301.5 -82t85.5 -133 q0 -45 -30 -124t-66.5 -150.5t-66.5 -144t-30 -105.5q0 -50 46 -82t169 -51l-14 -78q-82 -1 -136 -14t-79.5 -36.5t-35 -48t-9.5 -57.5q0 -44 13 -196.5t13 -212.5q0 -72 -20 -117t-74.5 -75t-139.5 -43.5t-224 -18.5z" />
<glyph unicode="~" horiz-adv-x="774" d="M68 487q30 52 43 74t37.5 57.5t41.5 50t41 26.5t50 12q51 0 145 -33t129 -33q58 0 129 100l47 -26q-73 -124 -104 -159q-51 -60 -111 -60q-50 0 -143 32.5t-131 32.5q-58 0 -129 -100z" />
<glyph unicode="&#xa1;" horiz-adv-x="552" d="M59 8l250 828h76l-68 -867q-6 -77 -45.5 -110t-99.5 -33q-70 0 -104.5 48.5t-8.5 133.5zM250 1133q0 60 43 101.5t106 41.5q62 0 105 -41.5t43 -101.5t-43.5 -103t-104.5 -43q-63 0 -106 43t-43 103z" />
<glyph unicode="&#xa2;" horiz-adv-x="983" d="M57 285q0 149 50.5 286t132 235t180.5 164.5t201 90.5l28 160h99l-27 -148h2q142 0 217.5 -44.5t75.5 -113.5q0 -116 -105 -116q-59 0 -86.5 29t-33.5 106q-3 31 -22 45.5t-62 15.5l-160 -903q122 37 260 164l45 -51q-146 -163 -322 -211l-38 -219h-101l35 198 q-18 -2 -55 -2q-133 0 -223.5 87.5t-90.5 226.5zM260 330q0 -120 50.5 -184t135.5 -66l158 895q-134 -59 -239 -247t-105 -398z" />
<glyph unicode="&#xa3;" horiz-adv-x="1028" d="M-33 0l27 141q151 80 213 174.5t65 237.5q0 66 -8 131h-143l16 92h119q-10 88 -10 160q2 223 144 365.5t368 142.5q138 0 216.5 -45.5t78.5 -122.5q0 -123 -111 -123q-55 0 -85 27t-36 90q-8 60 -22 75t-68 15q-97 0 -171.5 -77.5t-92.5 -223.5q-9 -70 -18 -283h364 l-16 -92h-351l-6 -109q-25 -232 -247 -389v-10h493q64 0 97.5 25.5t107.5 134.5h55l-96 -336h-883z" />
<glyph unicode="&#xa5;" horiz-adv-x="1157" d="M61 332l17 92h364l37 194h-364l16 93h334l-154 450q-33 99 -55.5 136t-56.5 46l-52 15l15 61h504l-17 -61l-53 -12q-96 -21 -96 -80q0 -11 2.5 -24t6 -22.5t9.5 -28t10 -30.5l127 -405h9l264 401q55 83 55 129q0 22 -10.5 34.5t-48.5 22.5l-54 15l17 61h409l-14 -61 l-57 -15q-46 -11 -79 -48t-118 -162l-291 -422h338l-16 -93h-363l-34 -194h360l-16 -92h-361l-22 -127q-13 -74 -6 -94.5t47 -28.5l96 -19l-12 -63h-543l12 63l100 19q42 8 57.5 28.5t28.5 94.5l23 127h-365z" />
<glyph unicode="&#xa6;" horiz-adv-x="507" d="M229 -266v786h117v-786h-117zM229 672v831h117v-831h-117z" />
<glyph unicode="&#xa7;" horiz-adv-x="1107" d="M51 -236q0 48 28 76.5t79 28.5q56 0 82 -26t32 -83q5 -62 22 -81t77 -19q102 0 155.5 58.5t53.5 146.5t-49.5 165t-190.5 224q-64 67 -94.5 101t-70.5 83t-57 82t-29.5 73.5t-12.5 82.5q0 109 74.5 189.5t203.5 133.5q-8 33 -8 76q0 157 117.5 260t292.5 103 q142 0 215 -46.5t73 -125.5q0 -47 -24 -77t-76 -30q-56 0 -82.5 25.5t-30.5 87.5q-3 54 -20.5 72t-75.5 18q-96 0 -152.5 -60t-56.5 -151q0 -87 48 -164.5t182 -218.5q151 -159 207.5 -243t56.5 -181q0 -106 -64 -185.5t-200 -140.5q8 -54 8 -79q-2 -145 -120 -251 t-290 -106q-149 0 -226 51t-77 131zM244 752q0 -24 4.5 -46t22 -51.5t29.5 -48t49 -61t57 -65t77 -83.5q13 -14 68 -74t75.5 -83.5t52.5 -67t50 -80.5q121 68 121 180q0 65 -48.5 133.5t-187.5 219.5q-7 8 -35.5 39.5t-36.5 40.5t-32 36.5t-33.5 39.5t-27.5 35.5t-27.5 39 t-21 35.5t-19.5 39q-137 -59 -137 -178z" />
<glyph unicode="&#xa8;" horiz-adv-x="1064" d="M354 1384q0 55 41.5 95.5t98.5 40.5q47 0 84.5 -36.5t37.5 -86.5q0 -54 -41.5 -94.5t-95.5 -40.5q-52 0 -88.5 35t-36.5 87zM764 1384q0 55 40.5 95.5t96.5 40.5q50 0 86.5 -36t36.5 -87q0 -54 -40.5 -94.5t-94.5 -40.5q-52 0 -88.5 35t-36.5 87z" />
<glyph unicode="&#xa9;" horiz-adv-x="1667" d="M113 705q0 149 57 283.5t154.5 232.5t235 155.5t292.5 57.5q154 0 292 -57.5t236.5 -155.5t156.5 -232.5t58 -283.5t-58 -284.5t-156.5 -234t-236.5 -157t-292 -58.5t-292 58.5t-235.5 157t-154.5 234t-57 284.5zM211 705q0 -178 80 -326.5t228 -237t333 -88.5 q138 0 259.5 52t206 140t133 207.5t48.5 252.5t-48.5 252t-133 206t-205.5 138t-260 51t-259.5 -51t-203.5 -138t-130.5 -206t-47.5 -252zM461 694q0 113 33 198t91.5 134.5t132 73.5t161.5 24q127 0 233 -28l10 -232h-57q-18 53 -64 131q-23 33 -50 43.5t-91 10.5 q-114 0 -166.5 -75.5t-52.5 -246.5q0 -196 57.5 -279t175.5 -83q50 0 80.5 12t55.5 47q41 76 65 139h55l-14 -227q-112 -47 -260 -47q-113 0 -200 41.5t-141 134.5t-54 229z" />
<glyph unicode="&#xaa;" horiz-adv-x="1042" d="M121 731q0 140 53 273t134 225.5t178.5 148.5t185.5 56q80 0 122 -15t83 -47h6l94 72l35 -14q-33 -72 -74 -275l-86 -418q-6 -38 -6 -57q0 -18 11 -25.5t34.5 -1.5t56.5 27l39 22l31 -49q-169 -155 -289 -155q-44 0 -62 29.5t-18 68.5q0 44 15 121h-7 q-168 -223 -340 -223q-93 0 -144.5 65.5t-51.5 171.5zM313 750q0 -66 24.5 -99t68.5 -33t97 40t83 74.5t85 105.5q13 16 19 24l82 416q-30 76 -113 76q-58 0 -120 -48.5t-112 -129t-82 -194t-32 -232.5z" />
<glyph unicode="&#xab;" horiz-adv-x="931" d="M92 498l6 59l383 385h88l-284 -430l145 -420h-82zM459 498l6 59l383 385h90l-287 -430l146 -420h-82z" />
<glyph unicode="&#xac;" horiz-adv-x="1650" d="M109 711q0 151 58.5 288t157 235.5t235.5 157t288 58.5q201 0 372 -98.5t271 -269t100 -371.5q0 -150 -59 -287.5t-159 -237t-237.5 -158.5t-287.5 -59q-151 0 -288 59t-235.5 158.5t-157 237t-58.5 287.5z" />
<glyph unicode="&#xad;" horiz-adv-x="591" d="M76 520l22 152h443l-23 -152h-442z" />
<glyph unicode="&#xae;" horiz-adv-x="1667" d="M113 705q0 149 57 283.5t154.5 232.5t235 155.5t292.5 57.5q154 0 292 -57.5t236.5 -155.5t156.5 -232.5t58 -283.5t-58 -284.5t-156.5 -234t-236.5 -157t-292 -58.5t-292 58.5t-235.5 157t-154.5 234t-57 284.5zM211 705q0 -178 80 -326.5t228 -237t333 -88.5 q138 0 259.5 52t206 140t133 207.5t48.5 252.5t-48.5 252t-133 206t-205.5 138t-260 51t-259.5 -51t-203.5 -138t-130.5 -206t-47.5 -252zM498 322v59l51 6q29 6 37 19t8 59v481q0 48 -8 60.5t-35 17.5l-53 10v56h352q301 0 301 -205q0 -70 -42 -118.5t-120 -72.5v-6 q100 -194 135 -250q15 -22 28.5 -31t45.5 -18l43 -8v-59h-219q-98 152 -172 325q-54 0 -100 8v-190q0 -46 8.5 -59t38.5 -19l53 -6v-59h-352zM750 723q34 -6 77 -6q92 0 130 40t38 120q0 81 -36.5 111t-114.5 30h-94v-295z" />
<glyph unicode="&#xaf;" horiz-adv-x="1044" d="M383 1278l25 129h561l-25 -129h-561z" />
<glyph unicode="&#xb0;" horiz-adv-x="704" d="M174 1153q0 116 82.5 201.5t204.5 85.5q118 0 199 -82t81 -193q0 -117 -85 -202.5t-205 -85.5q-118 0 -197.5 82t-79.5 194zM272 1161q0 -84 50 -142t131 -58q79 0 133.5 59t54.5 141q0 80 -51 138.5t-131 58.5t-133.5 -58.5t-53.5 -138.5z" />
<glyph unicode="&#xb1;" horiz-adv-x="1675" d="M72 696v29l587 580q85 83 188 58q80 -20 123 -92q52 -85 10 -174q-23 -46 -69 -85l-163 -135l694 32q129 6 182.5 -96.5t0 -204.5t-182.5 -96l-694 33l163 -135q101 -84 85 -190q-13 -82 -84 -131q-81 -55 -170 -24q-46 16 -85 54z" />
<glyph unicode="&#xb2;" horiz-adv-x="722" d="M43 555l18 96q12 8 50 35.5t51 37t43.5 31.5t45.5 34t37 29.5t38.5 32.5t31.5 30q104 92 154.5 176t50.5 196q0 113 -123 113q-29 0 -44 -13t-19 -44q-6 -58 -28 -80.5t-66 -22.5t-64 23t-20 59q0 64 73 106t189 42q125 0 204.5 -60t79.5 -166q0 -60 -28.5 -118t-70 -104 t-115 -100.5t-135.5 -92.5t-160 -95v-6h268q44 0 65 17.5t66 85.5h49l-61 -242h-580z" />
<glyph unicode="&#xb3;" horiz-adv-x="720" d="M63 680q0 44 22 70t62 26q43 0 65 -21.5t26 -72.5q5 -50 15.5 -64t53.5 -14q92 0 141.5 70t49.5 174q0 121 -133 121h-64l14 78h54q95 0 135.5 54.5t40.5 160.5q0 104 -111 104q-34 0 -50 -11t-19 -42q-6 -57 -25.5 -78t-63.5 -21q-40 0 -61.5 21t-21.5 57q0 62 72 103 t184 41q126 0 199 -54t73 -139q0 -185 -240 -229v-4q99 -14 156 -65t57 -128q0 -124 -105.5 -201t-266.5 -77q-121 0 -190 36t-69 105z" />
<glyph unicode="&#xb4;" horiz-adv-x="1064" d="M465 1264l332 233q44 31 80 31q35 0 57 -25t22 -55q0 -72 -86 -100l-385 -129z" />
<glyph unicode="&#xb6;" horiz-adv-x="1161" d="M147 1022q0 175 121 286t336 111h653l-12 -61l-96 -19q-40 -8 -54.5 -28.5t-29.5 -93.5l-254 -1422h-113l275 1538h-189l-272 -1538h-113l164 914q-32 -4 -67 -4q-162 0 -255.5 86.5t-93.5 230.5z" />
<glyph unicode="&#xb7;" horiz-adv-x="577" d="M162 692q0 60 43 103t104 43q63 0 106.5 -43t43.5 -103t-43.5 -101.5t-106.5 -41.5q-62 0 -104.5 41.5t-42.5 101.5z" />
<glyph unicode="&#xb8;" horiz-adv-x="1064" d="M209 -494l8 54q132 27 191 63t59 84q0 68 -121 76l-12 29l123 188h98l-100 -113q80 -10 125 -50.5t45 -96.5q0 -88 -106 -151t-310 -83z" />
<glyph unicode="&#xb9;" horiz-adv-x="528" d="M47 555l10 53l56 13q21 4 32 8t22.5 13t18.5 24.5t11 40.5l94 516h-127l10 59q205 41 318 148l26 -7l-129 -716q-8 -53 -2.5 -66.5t35.5 -19.5l67 -13l-10 -53h-432z" />
<glyph unicode="&#xba;" horiz-adv-x="1007" d="M135 860q0 132 46 244t119.5 182t160.5 109t172 39q83 0 150.5 -29.5t110 -79.5t65 -114t22.5 -136q0 -108 -30.5 -203t-80.5 -161.5t-114.5 -114.5t-133 -71t-135.5 -23q-169 0 -260.5 102t-91.5 256zM332 776q0 -194 155 -194q90 0 159 82t103.5 212t34.5 283 q0 95 -40 145t-115 50q-89 0 -158 -80.5t-104 -211t-35 -286.5z" />
<glyph unicode="&#xbb;" horiz-adv-x="931" d="M-8 92l287 430l-144 420h80l258 -405l-8 -60l-383 -385h-90zM362 92l283 430l-143 420h80l256 -405l-7 -60l-382 -385h-87z" />
<glyph unicode="&#xbc;" horiz-adv-x="1638" d="M47 555l10 53l56 13q21 4 32 8t22.5 13t18.5 24.5t11 40.5l94 516h-127l10 59q205 41 318 148l26 -7l-129 -716q-8 -53 -2.5 -66.5t35.5 -19.5l67 -13l-10 -53h-432zM219 -102l1215 1564h116l-1212 -1564h-119zM786 18l15 70l555 563h94l-102 -547h125l-23 -86h-123 l-12 -75q-8 -56 -1 -69.5t38 -20.5l49 -13l-8 -53h-361l8 53l50 13q32 8 43.5 23t21.5 69l14 73h-383zM918 104h268l65 336h-6l-327 -331v-5z" />
<glyph unicode="&#xbd;" horiz-adv-x="1638" d="M47 555l10 53l56 13q21 4 32 8t22.5 13t18.5 24.5t11 40.5l94 516h-127l10 59q205 41 318 148l26 -7l-129 -716q-8 -53 -2.5 -66.5t35.5 -19.5l67 -13l-10 -53h-432zM158 -102l1214 1564h117l-1213 -1564h-118zM768 -213l18 96q12 8 50 35.5t51 37t43.5 31.5t45.5 34 t37 29.5t38.5 32.5t31.5 30q104 92 154.5 176t50.5 196q0 113 -125 113q-27 0 -42 -13t-19 -44q-6 -58 -28 -80.5t-66 -22.5t-64 23t-20 59q0 64 73 106t189 42q125 0 204.5 -60t79.5 -166q0 -50 -17.5 -97t-55.5 -92t-78.5 -82.5t-107 -82.5t-119 -77t-134.5 -79v-6h269 q44 0 65 17.5t66 85.5h51l-61 -242h-580z" />
<glyph unicode="&#xbe;" horiz-adv-x="1638" d="M63 680q0 44 22 70t62 26q43 0 65 -21.5t26 -72.5q5 -50 15.5 -64t53.5 -14q92 0 141.5 70t49.5 174q0 121 -133 121h-64l14 78h54q95 0 135.5 54.5t40.5 160.5q0 104 -111 104q-34 0 -50 -11t-19 -42q-6 -57 -25.5 -78t-63.5 -21q-40 0 -61.5 21t-21.5 57q0 62 72 103 t184 41q126 0 199 -54t73 -139q0 -185 -240 -229v-4q99 -14 156 -65t57 -128q0 -124 -105.5 -201t-266.5 -77q-121 0 -190 36t-69 105zM272 -102l1215 1564h117l-1213 -1564h-119zM786 18l15 70l555 563h94l-102 -547h125l-23 -86h-123l-12 -75q-8 -56 -1 -69.5t38 -20.5 l49 -13l-8 -53h-361l8 53l50 13q32 8 43.5 23t21.5 69l14 73h-383zM918 104h268l65 336h-6l-327 -331v-5z" />
<glyph unicode="&#xbf;" horiz-adv-x="899" d="M29 186q0 85 26.5 154.5t71 118.5t110.5 87t137 61.5t158 41.5l39 201h105l-62 -350q-421 -65 -421 -387q0 -103 61.5 -156t151.5 -53q45 0 64.5 16t25.5 60q13 112 127 112q46 0 73 -27t27 -73q0 -60 -43 -100.5t-103 -56t-133 -15.5q-84 0 -158 23t-132 67t-91.5 115.5 t-33.5 160.5zM514 1133q0 60 43.5 101.5t106.5 41.5q62 0 104.5 -41.5t42.5 -101.5t-43 -103t-104 -43q-63 0 -106.5 43t-43.5 103z" />
<glyph unicode="&#xc0;" horiz-adv-x="1331" d="M-92 0l12 63l64 15q32 8 52 21.5t50.5 57t77.5 132.5l604 1130h135l191 -1153q20 -108 38.5 -144t55.5 -44l53 -15l-14 -63h-500l10 63l60 15q52 11 70 32.5t18 55.5q0 30 -13 119l-30 192h-459l-98 -192q-3 -5 -12 -23.5t-12 -24.5l-10.5 -21t-10 -22.5t-6.5 -18.5 t-5.5 -19t-1.5 -15q0 -27 12 -41.5t44 -21.5l65 -15l-12 -63h-428zM430 569h397l-90 584h-10zM584 1767q0 33 25 60.5t59 27.5t80 -30l333 -234l-22 -49l-400 131q-75 24 -75 94z" />
<glyph unicode="&#xc1;" horiz-adv-x="1331" d="M-92 0l12 63l64 15q32 8 52 21.5t50.5 57t77.5 132.5l604 1130h135l191 -1153q20 -108 38.5 -144t55.5 -44l53 -15l-14 -63h-500l10 63l60 15q52 11 70 32.5t18 55.5q0 30 -13 119l-30 192h-459l-98 -192q-3 -5 -12 -23.5t-12 -24.5l-10.5 -21t-10 -22.5t-6.5 -18.5 t-5.5 -19t-1.5 -15q0 -27 12 -41.5t44 -21.5l65 -15l-12 -63h-428zM430 569h397l-90 584h-10zM643 1591l332 234q43 30 80 30q35 0 57.5 -24.5t22.5 -54.5q0 -73 -86 -101l-385 -129z" />
<glyph unicode="&#xc2;" horiz-adv-x="1331" d="M-92 0l12 63l64 15q32 8 52 21.5t50.5 57t77.5 132.5l604 1130h135l191 -1153q20 -108 38.5 -144t55.5 -44l53 -15l-14 -63h-500l10 63l60 15q52 11 70 32.5t18 55.5q0 30 -13 119l-30 192h-459l-98 -192q-3 -5 -12 -23.5t-12 -24.5l-10.5 -21t-10 -22.5t-6.5 -18.5 t-5.5 -19t-1.5 -15q0 -27 12 -41.5t44 -21.5l65 -15l-12 -63h-428zM430 569h397l-90 584h-10zM532 1561l326 307h88l217 -307l-33 -41l-249 180l-320 -180z" />
<glyph unicode="&#xc3;" horiz-adv-x="1331" d="M-92 0l12 63l64 15q32 8 52 21.5t50.5 57t77.5 132.5l604 1130h135l191 -1153q20 -108 38.5 -144t55.5 -44l53 -15l-14 -63h-500l10 63l60 15q52 11 70 32.5t18 55.5q0 30 -13 119l-30 192h-459l-98 -192q-3 -5 -12 -23.5t-12 -24.5l-10.5 -21t-10 -22.5t-6.5 -18.5 t-5.5 -19t-1.5 -15q0 -27 12 -41.5t44 -21.5l65 -15l-12 -63h-428zM430 569h397l-90 584h-10zM518 1550q61 134 112 194t113 60q46 0 149 -42t124 -42q31 0 60.5 30.5t76.5 104.5l64 -26q-61 -134 -112.5 -194t-113.5 -60q-45 0 -146 42t-126 42q-31 0 -59.5 -30.5 t-75.5 -106.5z" />
<glyph unicode="&#xc4;" horiz-adv-x="1331" d="M-92 0l12 63l64 15q32 8 52 21.5t50.5 57t77.5 132.5l604 1130h135l191 -1153q20 -108 38.5 -144t55.5 -44l53 -15l-14 -63h-500l10 63l60 15q52 11 70 32.5t18 55.5q0 30 -13 119l-30 192h-459l-98 -192q-3 -5 -12 -23.5t-12 -24.5l-10.5 -21t-10 -22.5t-6.5 -18.5 t-5.5 -19t-1.5 -15q0 -27 12 -41.5t44 -21.5l65 -15l-12 -63h-428zM430 569h397l-90 584h-10zM541 1712q0 55 41 95t98 40q47 0 85 -36.5t38 -86.5q0 -54 -41.5 -94.5t-95.5 -40.5q-52 0 -88.5 35.5t-36.5 87.5zM950 1712q0 55 40.5 95t96.5 40q50 0 86.5 -36t36.5 -87 q0 -54 -40.5 -94.5t-94.5 -40.5q-52 0 -88.5 35.5t-36.5 87.5z" />
<glyph unicode="&#xc5;" horiz-adv-x="1331" d="M-92 0l12 63l64 15q32 8 52 21.5t50.5 57t77.5 132.5l604 1130h135l191 -1153q20 -108 38.5 -144t55.5 -44l53 -15l-14 -63h-500l10 63l60 15q52 11 70 32.5t18 55.5q0 30 -13 119l-30 192h-459l-98 -192q-3 -5 -12 -23.5t-12 -24.5l-10.5 -21t-10 -22.5t-6.5 -18.5 t-5.5 -19t-1.5 -15q0 -27 12 -41.5t44 -21.5l65 -15l-12 -63h-428zM430 569h397l-90 584h-10zM643 1712q0 85 60 144t149 59t149 -59t60 -144q0 -83 -60.5 -142t-148.5 -59t-148.5 59t-60.5 142zM733 1712q0 -54 32.5 -88.5t86.5 -34.5t86.5 34.5t32.5 88.5q0 55 -33 90 t-86 35t-86 -35t-33 -90z" />
<glyph unicode="&#xc6;" horiz-adv-x="1923" d="M-84 0l14 63l52 13q48 11 86.5 47t134.5 166l770 1048l-4 2l-109 19l14 61h1020l-2 -362h-67q-58 157 -78 192q-33 52 -81.5 66t-186.5 14q-133 0 -207 -18l-92 -527h84q107 0 150 10.5t71 51.5q37 65 69 143h72l-88 -508h-70q-6 94 -20 146q-10 42 -52 52.5t-182 10.5 h-51l-67 -379q-10 -55 -13.5 -85t0 -58.5t15 -40.5t38.5 -22.5t63 -12.5t95 -2q145 0 203.5 17t104.5 67q84 93 174 254h75l-120 -428h-1063l14 63l94 19q38 8 53.5 29t28.5 94l45 248h-454l-121 -168q-30 -45 -43 -65.5t-25 -46t-12 -42.5q0 -23 14 -35t45 -18l66 -15 l-13 -63h-444zM516 545h404l129 725h-9z" />
<glyph unicode="&#xc7;" horiz-adv-x="1257" d="M94 557q0 190 65 356.5t174 282t255 182t305 66.5q221 0 375 -70l-35 -385h-74q-38 192 -90 287q-25 45 -62 60.5t-124 15.5q-108 0 -199.5 -45.5t-157 -125.5t-111.5 -187t-68.5 -230t-22.5 -256q0 -226 84.5 -333t271.5 -107q89 0 135 20.5t92 73.5q94 102 189 272h69 l-96 -391q-146 -68 -407 -68q-9 0 -28 1t-28 1l-80 -90q80 -10 125 -50.5t45 -96.5q0 -88 -105.5 -151t-309.5 -83l8 54q132 27 191 63t59 84q0 68 -121 76l-12 29l114 178q-198 39 -312 187t-114 380z" />
<glyph unicode="&#xc8;" horiz-adv-x="1236" d="M-33 0l13 63l96 19q38 8 54.5 29.5t29.5 93.5l180 1012q12 74 5 94t-46 28l-90 19l12 61h987l-2 -362h-69q-58 157 -78 192q-33 52 -80.5 66t-185.5 14q-144 0 -218 -18l-94 -527h94q107 0 150.5 10.5t71.5 51.5q28 42 69 143h72l-88 -508h-70q-5 92 -18 146 q-12 42 -54 52.5t-182 10.5h-61l-68 -379q-9 -54 -12.5 -84.5t1.5 -59t17 -41t40.5 -22t65.5 -12t99 -2.5q144 0 201 17t104 67q84 93 174 254h78l-121 -428h-1077zM516 1767q0 33 25 60.5t59 27.5t80 -30l334 -234l-23 -49l-399 131q-40 13 -58 38.5t-18 55.5z" />
<glyph unicode="&#xc9;" horiz-adv-x="1236" d="M-33 0l13 63l96 19q38 8 54.5 29.5t29.5 93.5l180 1012q12 74 5 94t-46 28l-90 19l12 61h987l-2 -362h-69q-58 157 -78 192q-33 52 -80.5 66t-185.5 14q-144 0 -218 -18l-94 -527h94q107 0 150.5 10.5t71.5 51.5q28 42 69 143h72l-88 -508h-70q-5 92 -18 146 q-12 42 -54 52.5t-182 10.5h-61l-68 -379q-9 -54 -12.5 -84.5t1.5 -59t17 -41t40.5 -22t65.5 -12t99 -2.5q144 0 201 17t104 67q84 93 174 254h78l-121 -428h-1077zM600 1591l332 234q43 30 80 30q35 0 57.5 -24.5t22.5 -54.5q0 -73 -86 -101l-385 -129z" />
<glyph unicode="&#xca;" horiz-adv-x="1236" d="M-33 0l13 63l96 19q38 8 54.5 29.5t29.5 93.5l180 1012q12 74 5 94t-46 28l-90 19l12 61h987l-2 -362h-69q-58 157 -78 192q-33 52 -80.5 66t-185.5 14q-144 0 -218 -18l-94 -527h94q107 0 150.5 10.5t71.5 51.5q28 42 69 143h72l-88 -508h-70q-5 92 -18 146 q-12 42 -54 52.5t-182 10.5h-61l-68 -379q-9 -54 -12.5 -84.5t1.5 -59t17 -41t40.5 -22t65.5 -12t99 -2.5q144 0 201 17t104 67q84 93 174 254h78l-121 -428h-1077zM473 1561l326 307h88l217 -307l-33 -41l-250 180l-319 -180z" />
<glyph unicode="&#xcb;" horiz-adv-x="1236" d="M-33 0l13 63l96 19q38 8 54.5 29.5t29.5 93.5l180 1012q12 74 5 94t-46 28l-90 19l12 61h987l-2 -362h-69q-58 157 -78 192q-33 52 -80.5 66t-185.5 14q-144 0 -218 -18l-94 -527h94q107 0 150.5 10.5t71.5 51.5q28 42 69 143h72l-88 -508h-70q-5 92 -18 146 q-12 42 -54 52.5t-182 10.5h-61l-68 -379q-9 -54 -12.5 -84.5t1.5 -59t17 -41t40.5 -22t65.5 -12t99 -2.5q144 0 201 17t104 67q84 93 174 254h78l-121 -428h-1077zM461 1712q0 55 41 95t98 40q47 0 85 -36.5t38 -86.5q0 -54 -41.5 -94.5t-95.5 -40.5q-52 0 -88.5 35.5 t-36.5 87.5zM870 1712q0 55 41 95t97 40q50 0 86 -36t36 -87q0 -54 -40.5 -94.5t-94.5 -40.5q-52 0 -88.5 35.5t-36.5 87.5z" />
<glyph unicode="&#xcc;" horiz-adv-x="669" d="M-33 0l13 63l104 19q40 8 55.5 29t28.5 94l180 1012q12 74 5 94t-46 28l-98 19l12 61h547l-12 -61l-105 -19q-37 -6 -53.5 -28t-30.5 -94l-178 -1012q-14 -73 -7.5 -94.5t46.5 -28.5l98 -19l-12 -63h-547zM252 1767q0 33 25 60.5t59 27.5t80 -30l334 -234l-23 -49 l-399 131q-40 13 -58 38.5t-18 55.5z" />
<glyph unicode="&#xcd;" horiz-adv-x="669" d="M-33 0l13 63l104 19q40 8 55.5 29t28.5 94l180 1012q12 74 5 94t-46 28l-98 19l12 61h547l-12 -61l-105 -19q-37 -6 -53.5 -28t-30.5 -94l-178 -1012q-14 -73 -7.5 -94.5t46.5 -28.5l98 -19l-12 -63h-547zM311 1591l332 234q43 30 80 30q35 0 57.5 -24.5t22.5 -54.5 q0 -73 -86 -101l-385 -129z" />
<glyph unicode="&#xce;" horiz-adv-x="669" d="M-33 0l13 63l104 19q40 8 55.5 29t28.5 94l180 1012q12 74 5 94t-46 28l-98 19l12 61h547l-12 -61l-105 -19q-37 -6 -53.5 -28t-30.5 -94l-178 -1012q-14 -73 -7.5 -94.5t46.5 -28.5l98 -19l-12 -63h-547zM197 1561l325 307h88l217 -307l-32 -41l-250 180l-320 -180z" />
<glyph unicode="&#xcf;" horiz-adv-x="669" d="M-33 0l13 63l104 19q40 8 55.5 29t28.5 94l180 1012q12 74 5 94t-46 28l-98 19l12 61h547l-12 -61l-105 -19q-37 -6 -53.5 -28t-30.5 -94l-178 -1012q-14 -73 -7.5 -94.5t46.5 -28.5l98 -19l-12 -63h-547zM201 1712q0 55 41 95t98 40q47 0 85 -36.5t38 -86.5 q0 -54 -41.5 -94.5t-95.5 -40.5q-52 0 -88.5 35.5t-36.5 87.5zM610 1712q0 55 41 95t97 40q50 0 86 -36t36 -87q0 -54 -40.5 -94.5t-94.5 -40.5q-52 0 -88.5 35.5t-36.5 87.5z" />
<glyph unicode="&#xd0;" horiz-adv-x="1406" d="M-33 0l13 63l96 19q38 6 54.5 28t29.5 95l84 469h-152l17 88h149l82 455q12 75 4 94.5t-45 27.5l-90 19l12 61h553q277 0 438.5 -143t161.5 -408q0 -201 -64 -366t-176 -274t-262.5 -168.5t-324.5 -59.5h-580zM395 285q-25 -123 4 -161t150 -38q130 0 232 41.5t170 115 t112 180t63 230t19 271.5q0 207 -91 308t-298 101q-114 0 -181 -18l-98 -553h369l-17 -88h-366z" />
<glyph unicode="&#xd1;" horiz-adv-x="1406" d="M-20 0l12 63l74 15q52 9 73.5 38.5t38.5 123.5l174 977q12 74 5 94t-46 28l-90 19l12 61h400l446 -1050h6l148 827q14 85 2 112t-61 35l-89 15l15 61h430l-12 -61l-66 -15q-50 -11 -73.5 -42t-39.5 -125l-215 -1184h-106l-543 1268h-6l-186 -1035q-14 -85 2.5 -112.5 t79.5 -38.5l65 -11l-10 -63h-440zM578 1550q61 134 112 194t113 60q46 0 148.5 -42t123.5 -42q31 0 60.5 30.5t76.5 104.5l64 -26q-61 -134 -112 -194t-113 -60q-45 0 -146.5 42t-126.5 42q-31 0 -59.5 -30.5t-75.5 -106.5z" />
<glyph unicode="&#xd2;" d="M92 551q0 189 66 358.5t172.5 285.5t242.5 183.5t275 67.5q232 0 383 -160.5t151 -425.5q0 -188 -63 -355t-167 -282t-238 -181.5t-275 -66.5q-113 0 -212 39.5t-173.5 111.5t-118 182t-43.5 243zM322 494q0 -91 15 -161.5t50 -131.5t102 -94t162 -33q117 0 213.5 70.5 t158.5 189.5t96 273t34 325q0 414 -311 414q-97 0 -181.5 -47t-145.5 -128.5t-105 -190t-66 -232.5t-22 -254zM614 1767q0 33 25 60.5t59 27.5t80 -30l334 -234l-22 -49l-400 131q-40 13 -58 38.5t-18 55.5z" />
<glyph unicode="&#xd3;" d="M92 551q0 189 66 358.5t172.5 285.5t242.5 183.5t275 67.5q232 0 383 -160.5t151 -425.5q0 -188 -63 -355t-167 -282t-238 -181.5t-275 -66.5q-113 0 -212 39.5t-173.5 111.5t-118 182t-43.5 243zM322 494q0 -91 15 -161.5t50 -131.5t102 -94t162 -33q117 0 213.5 70.5 t158.5 189.5t96 273t34 325q0 414 -311 414q-97 0 -181.5 -47t-145.5 -128.5t-105 -190t-66 -232.5t-22 -254zM690 1591l332 234q43 30 80 30q35 0 57.5 -24.5t22.5 -54.5q0 -73 -86 -101l-385 -129z" />
<glyph unicode="&#xd4;" d="M92 551q0 189 66 358.5t172.5 285.5t242.5 183.5t275 67.5q232 0 383 -160.5t151 -425.5q0 -188 -63 -355t-167 -282t-238 -181.5t-275 -66.5q-113 0 -212 39.5t-173.5 111.5t-118 182t-43.5 243zM322 494q0 -91 15 -161.5t50 -131.5t102 -94t162 -33q117 0 213.5 70.5 t158.5 189.5t96 273t34 325q0 414 -311 414q-97 0 -181.5 -47t-145.5 -128.5t-105 -190t-66 -232.5t-22 -254zM561 1561l326 307h88l217 -307l-33 -41l-250 180l-319 -180z" />
<glyph unicode="&#xd5;" d="M92 551q0 189 66 358.5t172.5 285.5t242.5 183.5t275 67.5q232 0 383 -160.5t151 -425.5q0 -188 -63 -355t-167 -282t-238 -181.5t-275 -66.5q-113 0 -212 39.5t-173.5 111.5t-118 182t-43.5 243zM322 494q0 -91 15 -161.5t50 -131.5t102 -94t162 -33q117 0 213.5 70.5 t158.5 189.5t96 273t34 325q0 414 -311 414q-97 0 -181.5 -47t-145.5 -128.5t-105 -190t-66 -232.5t-22 -254zM532 1550q61 134 112.5 194t113.5 60q46 0 148.5 -42t123.5 -42q31 0 60.5 30.5t76.5 104.5l64 -26q-61 -134 -112 -194t-113 -60q-45 0 -146.5 42t-126.5 42 q-31 0 -59.5 -30.5t-75.5 -106.5z" />
<glyph unicode="&#xd6;" d="M92 551q0 189 66 358.5t172.5 285.5t242.5 183.5t275 67.5q232 0 383 -160.5t151 -425.5q0 -188 -63 -355t-167 -282t-238 -181.5t-275 -66.5q-113 0 -212 39.5t-173.5 111.5t-118 182t-43.5 243zM322 494q0 -91 15 -161.5t50 -131.5t102 -94t162 -33q117 0 213.5 70.5 t158.5 189.5t96 273t34 325q0 414 -311 414q-97 0 -181.5 -47t-145.5 -128.5t-105 -190t-66 -232.5t-22 -254zM567 1712q0 55 41.5 95t98.5 40q47 0 84.5 -36.5t37.5 -86.5q0 -54 -41.5 -94.5t-95.5 -40.5q-52 0 -88.5 35.5t-36.5 87.5zM977 1712q0 55 40.5 95t96.5 40 q50 0 86.5 -36t36.5 -87q0 -54 -40.5 -94.5t-94.5 -40.5q-52 0 -88.5 35.5t-36.5 87.5z" />
<glyph unicode="&#xd7;" horiz-adv-x="903" d="M102 360l285 295l-285 295l93 88l280 -295l287 295l86 -86l-287 -295l287 -295l-90 -88l-287 295l-281 -295z" />
<glyph unicode="&#xd8;" d="M39 -131l205 266q-152 158 -152 416q0 189 66 358.5t172.5 285.5t242.5 183.5t275 67.5q185 0 321 -105l119 154h117l-168 -217q145 -164 145 -418q0 -188 -63 -355t-167 -282t-238 -181.5t-275 -66.5q-188 0 -326 99l-157 -205h-117zM319 494q0 -150 23 -230l752 979 q-70 103 -252 103q-97 0 -181.5 -47t-146.5 -128.5t-106.5 -189.5t-66.5 -232.5t-22 -254.5zM387 170q72 -96 264 -96q117 0 214 70.5t159.5 189.5t96.5 273.5t34 324.5q0 137 -18 213z" />
<glyph unicode="&#xd9;" horiz-adv-x="1392" d="M184 1358l13 61h526l-12 -61l-95 -19q-41 -8 -56 -28t-28 -94l-131 -734q-38 -211 36.5 -305t273.5 -94q93 0 158.5 23.5t108 73t67 111.5t40.5 152l134 752q7 37 7.5 62t-3.5 41t-15.5 25.5t-25.5 14t-37 7.5l-78 12l16 61h443l-15 -61l-73 -15q-46 -8 -71.5 -37.5 t-39.5 -109.5l-141 -780q-79 -441 -506 -441q-134 0 -235 31t-169 96t-90.5 164.5t0.5 237.5l127 713q12 74 5 94t-46 28zM596 1767q0 33 25 60.5t59 27.5t80 -30l334 -234l-23 -49l-399 131q-40 13 -58 38.5t-18 55.5z" />
<glyph unicode="&#xda;" horiz-adv-x="1392" d="M184 1358l13 61h526l-12 -61l-95 -19q-41 -8 -56 -28t-28 -94l-131 -734q-38 -211 36.5 -305t273.5 -94q93 0 158.5 23.5t108 73t67 111.5t40.5 152l134 752q7 37 7.5 62t-3.5 41t-15.5 25.5t-25.5 14t-37 7.5l-78 12l16 61h443l-15 -61l-73 -15q-46 -8 -71.5 -37.5 t-39.5 -109.5l-141 -780q-79 -441 -506 -441q-134 0 -235 31t-169 96t-90.5 164.5t0.5 237.5l127 713q12 74 5 94t-46 28zM719 1591l332 234q43 30 79 30q35 0 57.5 -24.5t22.5 -54.5q0 -73 -86 -101l-385 -129z" />
<glyph unicode="&#xdb;" horiz-adv-x="1392" d="M184 1358l13 61h526l-12 -61l-95 -19q-41 -8 -56 -28t-28 -94l-131 -734q-38 -211 36.5 -305t273.5 -94q93 0 158.5 23.5t108 73t67 111.5t40.5 152l134 752q7 37 7.5 62t-3.5 41t-15.5 25.5t-25.5 14t-37 7.5l-78 12l16 61h443l-15 -61l-73 -15q-46 -8 -71.5 -37.5 t-39.5 -109.5l-141 -780q-79 -441 -506 -441q-134 0 -235 31t-169 96t-90.5 164.5t0.5 237.5l127 713q12 74 5 94t-46 28zM596 1561l326 307h88l217 -307l-33 -41l-250 180l-319 -180z" />
<glyph unicode="&#xdc;" horiz-adv-x="1392" d="M184 1358l13 61h526l-12 -61l-95 -19q-41 -8 -56 -28t-28 -94l-131 -734q-38 -211 36.5 -305t273.5 -94q93 0 158.5 23.5t108 73t67 111.5t40.5 152l134 752q7 37 7.5 62t-3.5 41t-15.5 25.5t-25.5 14t-37 7.5l-78 12l16 61h443l-15 -61l-73 -15q-46 -8 -71.5 -37.5 t-39.5 -109.5l-141 -780q-79 -441 -506 -441q-134 0 -235 31t-169 96t-90.5 164.5t0.5 237.5l127 713q12 74 5 94t-46 28zM584 1712q0 55 41 95t98 40q47 0 85 -36.5t38 -86.5q0 -54 -41.5 -94.5t-95.5 -40.5q-52 0 -88.5 35.5t-36.5 87.5zM993 1712q0 55 40.5 95t96.5 40 q50 0 86.5 -36t36.5 -87q0 -54 -40.5 -94.5t-94.5 -40.5q-52 0 -88.5 35.5t-36.5 87.5z" />
<glyph unicode="&#xdd;" horiz-adv-x="1214" d="M150 1358l12 61h516l-14 -61l-54 -12q-52 -11 -75 -28t-23 -48q0 -27 23 -109l141 -467h10l291 434q41 61 57.5 94t16.5 58q0 55 -70 68l-49 10l14 61h428l-12 -61l-49 -15q-53 -18 -96 -59.5t-117 -150.5l-373 -551l-68 -377q-11 -47 -9 -73t12.5 -35.5t39.5 -14.5 l93 -19l-13 -63h-542l12 63l102 19q41 8 57 29t29 94l66 362l-191 594q-31 98 -53.5 134t-62.5 48zM637 1591l332 234q43 30 80 30q35 0 57 -24.5t22 -54.5q0 -73 -86 -101l-385 -129z" />
<glyph unicode="&#xde;" horiz-adv-x="1179" d="M-33 0l13 63l96 19q38 6 54.5 28t29.5 95l180 1012q11 77 3.5 95.5t-44.5 26.5l-90 19l12 61h535l-13 -61l-100 -19q-40 -8 -55.5 -28.5t-28.5 -93.5l-14 -78h160q230 0 349.5 -93t119.5 -264q0 -136 -65.5 -244.5t-175 -167.5t-241.5 -59q-54 0 -91.5 6.5t-50 12 t-34.5 18.5l12 62q217 -25 320.5 79.5t103.5 319.5q0 135 -57 187.5t-201 52.5q-104 0 -170 -15l-145 -829q-12 -77 -5 -96t46 -27l94 -19l-12 -63h-535z" />
<glyph unicode="&#xdf;" horiz-adv-x="1169" d="M-287 -342q0 43 25.5 67.5t64.5 24.5q42 0 65.5 -22t35.5 -72q5 -20 11 -27.5t19 -7.5q44 0 68.5 30t47.5 120t54 286l140 879h-135l10 59l141 47l2 15q19 133 70.5 235t123.5 161.5t154 88.5t172 29q140 0 225 -70t85 -168q0 -65 -37 -131t-90 -119.5t-106.5 -102 t-90.5 -93.5t-37 -78q0 -36 36.5 -82t88.5 -93.5t104 -99t88.5 -115.5t36.5 -126q0 -134 -102 -225t-246 -91q-150 0 -216 48.5t-66 117.5q0 43 24.5 70t65.5 27q48 0 71.5 -25t38.5 -92q8 -34 28.5 -48t70.5 -14q79 0 127.5 42t48.5 108q0 45 -25 90.5t-62 81t-81 77.5 t-81 79t-62 85t-25 97q0 62 32.5 123.5t79 113.5t92.5 105.5t78.5 121.5t32.5 140q0 81 -37.5 121.5t-105.5 40.5q-50 0 -91.5 -15.5t-83 -53.5t-73 -113.5t-49.5 -184.5l-133 -811q-45 -278 -110.5 -449.5t-146.5 -245t-188 -73.5q-85 0 -131.5 30.5t-46.5 86.5z" />
<glyph unicode="&#xe0;" horiz-adv-x="1128" d="M41 246q0 134 41 263.5t108 229t150 176.5t171.5 117.5t166.5 40.5q65 0 110.5 -10.5t64 -21t50.5 -35.5h8l103 77l41 -14q-39 -81 -86 -319l-95 -504q-8 -54 -8 -74q0 -65 117 0l45 29l31 -47q-97 -89 -168.5 -130.5t-145.5 -41.5q-45 0 -65.5 32t-20.5 76q0 70 25 172 h-8q-202 -289 -408 -289q-106 0 -166.5 77t-60.5 196zM240 264q0 -80 27.5 -121t78.5 -41q38 0 80.5 22t74 47.5t77.5 78.5t67 79.5t66 86.5l96 473q-39 100 -143 100q-97 0 -195 -98t-163.5 -268.5t-65.5 -358.5zM461 1440q0 33 25 60.5t59 27.5q32 0 80 -31l333 -233 l-22 -50l-399 132q-40 12 -58 38t-18 56z" />
<glyph unicode="&#xe1;" horiz-adv-x="1128" d="M41 246q0 134 41 263.5t108 229t150 176.5t171.5 117.5t166.5 40.5q65 0 110.5 -10.5t64 -21t50.5 -35.5h8l103 77l41 -14q-39 -81 -86 -319l-95 -504q-8 -54 -8 -74q0 -65 117 0l45 29l31 -47q-97 -89 -168.5 -130.5t-145.5 -41.5q-45 0 -65.5 32t-20.5 76q0 70 25 172 h-8q-202 -289 -408 -289q-106 0 -166.5 77t-60.5 196zM240 264q0 -80 27.5 -121t78.5 -41q38 0 80.5 22t74 47.5t77.5 78.5t67 79.5t66 86.5l96 473q-39 100 -143 100q-97 0 -195 -98t-163.5 -268.5t-65.5 -358.5zM516 1264l332 233q44 31 80 31q35 0 57.5 -25t22.5 -55 q0 -72 -86 -100l-385 -129z" />
<glyph unicode="&#xe2;" horiz-adv-x="1128" d="M41 246q0 134 41 263.5t108 229t150 176.5t171.5 117.5t166.5 40.5q65 0 110.5 -10.5t64 -21t50.5 -35.5h8l103 77l41 -14q-39 -81 -86 -319l-95 -504q-8 -54 -8 -74q0 -65 117 0l45 29l31 -47q-97 -89 -168.5 -130.5t-145.5 -41.5q-45 0 -65.5 32t-20.5 76q0 70 25 172 h-8q-202 -289 -408 -289q-106 0 -166.5 77t-60.5 196zM240 264q0 -80 27.5 -121t78.5 -41q38 0 80.5 22t74 47.5t77.5 78.5t67 79.5t66 86.5l96 473q-39 100 -143 100q-97 0 -195 -98t-163.5 -268.5t-65.5 -358.5zM399 1233l326 307h88l217 -307l-33 -41l-249 180l-320 -180 z" />
<glyph unicode="&#xe3;" horiz-adv-x="1128" d="M41 246q0 134 41 263.5t108 229t150 176.5t171.5 117.5t166.5 40.5q65 0 110.5 -10.5t64 -21t50.5 -35.5h8l103 77l41 -14q-39 -81 -86 -319l-95 -504q-8 -54 -8 -74q0 -65 117 0l45 29l31 -47q-97 -89 -168.5 -130.5t-145.5 -41.5q-45 0 -65.5 32t-20.5 76q0 70 25 172 h-8q-202 -289 -408 -289q-106 0 -166.5 77t-60.5 196zM240 264q0 -80 27.5 -121t78.5 -41q38 0 80.5 22t74 47.5t77.5 78.5t67 79.5t66 86.5l96 473q-39 100 -143 100q-97 0 -195 -98t-163.5 -268.5t-65.5 -358.5zM362 1223q61 134 112.5 194t113.5 60q46 0 148.5 -42 t123.5 -42q31 0 60.5 30.5t76.5 104.5l64 -27q-61 -134 -112 -194t-113 -60q-45 0 -146.5 42t-126.5 42q-31 0 -59.5 -30.5t-75.5 -106.5z" />
<glyph unicode="&#xe4;" horiz-adv-x="1128" d="M41 246q0 134 41 263.5t108 229t150 176.5t171.5 117.5t166.5 40.5q65 0 110.5 -10.5t64 -21t50.5 -35.5h8l103 77l41 -14q-39 -81 -86 -319l-95 -504q-8 -54 -8 -74q0 -65 117 0l45 29l31 -47q-97 -89 -168.5 -130.5t-145.5 -41.5q-45 0 -65.5 32t-20.5 76q0 70 25 172 h-8q-202 -289 -408 -289q-106 0 -166.5 77t-60.5 196zM240 264q0 -80 27.5 -121t78.5 -41q38 0 80.5 22t74 47.5t77.5 78.5t67 79.5t66 86.5l96 473q-39 100 -143 100q-97 0 -195 -98t-163.5 -268.5t-65.5 -358.5zM406 1384q0 56 41 96t98 40q47 0 85 -36.5t38 -86.5 q0 -54 -42 -94.5t-96 -40.5q-52 0 -88 35t-36 87zM815 1384q0 55 40.5 95.5t96.5 40.5q50 0 86.5 -36t36.5 -87q0 -54 -40.5 -94.5t-94.5 -40.5q-52 0 -88.5 35t-36.5 87z" />
<glyph unicode="&#xe5;" horiz-adv-x="1128" d="M41 246q0 134 41 263.5t108 229t150 176.5t171.5 117.5t166.5 40.5q65 0 110.5 -10.5t64 -21t50.5 -35.5h8l103 77l41 -14q-39 -81 -86 -319l-95 -504q-8 -54 -8 -74q0 -65 117 0l45 29l31 -47q-97 -89 -168.5 -130.5t-145.5 -41.5q-45 0 -65.5 32t-20.5 76q0 70 25 172 h-8q-202 -289 -408 -289q-106 0 -166.5 77t-60.5 196zM240 264q0 -80 27.5 -121t78.5 -41q38 0 80.5 22t74 47.5t77.5 78.5t67 79.5t66 86.5l96 473q-39 100 -143 100q-97 0 -195 -98t-163.5 -268.5t-65.5 -358.5zM524 1405q0 85 60 144t149 59t149 -59t60 -144 q0 -83 -60.5 -142t-148.5 -59t-148.5 59t-60.5 142zM614 1405q0 -54 32.5 -88.5t86.5 -34.5t86.5 34.5t32.5 88.5q0 55 -33 90t-86 35t-86 -35t-33 -90z" />
<glyph unicode="&#xe6;" horiz-adv-x="1476" d="M33 199q0 156 146 243.5t470 139.5l23 137q26 155 -6.5 214.5t-145.5 59.5q-59 0 -80 -16t-24 -62q-4 -67 -32.5 -98t-82.5 -31q-49 0 -74.5 26t-25.5 73q0 59 49 103.5t124.5 65.5t162.5 21q287 0 309 -209q90 99 194.5 154t194.5 55q135 0 191.5 -49.5t56.5 -146.5 q0 -127 -191 -243t-475 -149q-18 -86 -18 -178q0 -108 46 -167.5t130 -59.5q82 0 157.5 41t170.5 121l43 -49q-209 -224 -445 -224q-106 0 -181.5 55t-103.5 146h-6q-159 -201 -344 -201q-113 0 -173 63t-60 165zM231 215q0 -55 28.5 -89t80.5 -34q57 0 127.5 47t132.5 121 v21q0 104 31 221q-126 -26 -200 -49t-121 -56.5t-63 -75t-16 -106.5zM838 569q265 49 376 142q76 67 76 184q0 96 -86 96q-95 0 -202.5 -121t-163.5 -301z" />
<glyph unicode="&#xe7;" horiz-adv-x="925" d="M16 -494l9 54q132 27 190.5 63t58.5 84q0 68 -120 76l-13 29l113 176q-93 29 -147 108.5t-54 184.5q0 135 38 260.5t102 220t145.5 166t171 108.5t174.5 37q122 0 190 -45t68 -113q0 -116 -104 -116q-58 0 -86.5 29t-34.5 106q-3 33 -15.5 44t-46.5 11q-96 0 -189 -96 t-152.5 -255t-59.5 -329q0 -223 184 -223q134 0 322 170l43 -51q-206 -234 -447 -234h-20l-74 -84q80 -10 125 -50.5t45 -96.5q0 -88 -106 -151t-310 -83z" />
<glyph unicode="&#xe8;" horiz-adv-x="933" d="M53 281q0 134 43.5 260.5t114.5 221t157.5 166.5t175 109t165.5 37q113 0 172 -56.5t59 -152.5q0 -88 -90.5 -174t-243 -154.5t-344.5 -111.5q-8 -52 -8 -117q0 -108 48 -167.5t132 -59.5q44 0 84 11t85.5 39.5t71 47t83.5 64.5l43 -49q-209 -224 -445 -224 q-140 0 -221.5 88t-81.5 222zM276 512q249 64 365 160q102 83 102 211q0 53 -21.5 80.5t-59.5 27.5q-102 0 -220 -140t-166 -339zM406 1440q0 33 24.5 60.5t58.5 27.5q32 0 80 -31l334 -233l-22 -50l-400 132q-75 24 -75 94z" />
<glyph unicode="&#xe9;" horiz-adv-x="933" d="M53 281q0 134 43.5 260.5t114.5 221t157.5 166.5t175 109t165.5 37q113 0 172 -56.5t59 -152.5q0 -88 -90.5 -174t-243 -154.5t-344.5 -111.5q-8 -52 -8 -117q0 -108 48 -167.5t132 -59.5q44 0 84 11t85.5 39.5t71 47t83.5 64.5l43 -49q-209 -224 -445 -224 q-140 0 -221.5 88t-81.5 222zM276 512q249 64 365 160q102 83 102 211q0 53 -21.5 80.5t-59.5 27.5q-102 0 -220 -140t-166 -339zM457 1264l331 233q44 31 80 31q35 0 57.5 -25t22.5 -55q0 -72 -86 -100l-385 -129z" />
<glyph unicode="&#xea;" horiz-adv-x="933" d="M53 281q0 134 43.5 260.5t114.5 221t157.5 166.5t175 109t165.5 37q113 0 172 -56.5t59 -152.5q0 -88 -90.5 -174t-243 -154.5t-344.5 -111.5q-8 -52 -8 -117q0 -108 48 -167.5t132 -59.5q44 0 84 11t85.5 39.5t71 47t83.5 64.5l43 -49q-209 -224 -445 -224 q-140 0 -221.5 88t-81.5 222zM276 512q249 64 365 160q102 83 102 211q0 53 -21.5 80.5t-59.5 27.5q-102 0 -220 -140t-166 -339zM379 1233l326 307h88l217 -307l-33 -41l-250 180l-319 -180z" />
<glyph unicode="&#xeb;" horiz-adv-x="933" d="M53 281q0 134 43.5 260.5t114.5 221t157.5 166.5t175 109t165.5 37q113 0 172 -56.5t59 -152.5q0 -88 -90.5 -174t-243 -154.5t-344.5 -111.5q-8 -52 -8 -117q0 -108 48 -167.5t132 -59.5q44 0 84 11t85.5 39.5t71 47t83.5 64.5l43 -49q-209 -224 -445 -224 q-140 0 -221.5 88t-81.5 222zM276 512q249 64 365 160q102 83 102 211q0 53 -21.5 80.5t-59.5 27.5q-102 0 -220 -140t-166 -339zM352 1384q0 55 41.5 95.5t98.5 40.5q47 0 84.5 -36.5t37.5 -86.5q0 -54 -41.5 -94.5t-95.5 -40.5q-52 0 -88.5 35t-36.5 87zM762 1384 q0 55 40.5 95.5t96.5 40.5q50 0 86.5 -36t36.5 -87q0 -54 -40.5 -94.5t-94.5 -40.5q-52 0 -88.5 35t-36.5 87z" />
<glyph unicode="&#xec;" horiz-adv-x="585" d="M82 879q200 194 326 194q37 0 55 -23.5t18 -62.5q0 -73 -37 -221l-127 -522q-10 -42 -10 -72q0 -70 123 0l51 33l31 -47q-100 -91 -173.5 -133.5t-154.5 -42.5q-40 0 -64 27.5t-24 68.5q0 66 25 164l137 551q14 72 14 79q0 49 -64 19q-20 -10 -48 -27l-47 -28zM137 1440 q0 33 25 60.5t59 27.5q32 0 80 -31l334 -233l-23 -50l-399 132q-40 12 -58 38t-18 56z" />
<glyph unicode="&#xed;" horiz-adv-x="585" d="M82 879q200 194 326 194q37 0 55 -23.5t18 -62.5q0 -73 -37 -221l-127 -522q-10 -42 -10 -72q0 -70 123 0l51 33l31 -47q-100 -91 -173.5 -133.5t-154.5 -42.5q-40 0 -64 27.5t-24 68.5q0 66 25 164l137 551q14 72 14 79q0 49 -64 19q-20 -10 -48 -27l-47 -28zM236 1264 l331 233q44 31 80 31q35 0 57.5 -25t22.5 -55q0 -72 -86 -100l-385 -129z" />
<glyph unicode="&#xee;" horiz-adv-x="585" d="M82 879q200 194 326 194q37 0 55 -23.5t18 -62.5q0 -73 -37 -221l-127 -522q-10 -42 -10 -72q0 -70 123 0l51 33l31 -47q-100 -91 -173.5 -133.5t-154.5 -42.5q-40 0 -64 27.5t-24 68.5q0 66 25 164l137 551q14 72 14 79q0 49 -64 19q-20 -10 -48 -27l-47 -28zM84 1233 l326 307h88l217 -307l-33 -41l-250 180l-319 -180z" />
<glyph unicode="&#xef;" horiz-adv-x="585" d="M82 879q200 194 326 194q37 0 55 -23.5t18 -62.5q0 -73 -37 -221l-127 -522q-10 -42 -10 -72q0 -70 123 0l51 33l31 -47q-100 -91 -173.5 -133.5t-154.5 -42.5q-40 0 -64 27.5t-24 68.5q0 66 25 164l137 551q14 72 14 79q0 49 -64 19q-20 -10 -48 -27l-47 -28zM82 1384 q0 56 41 96t98 40q47 0 85 -36.5t38 -86.5q0 -54 -41.5 -94.5t-95.5 -40.5q-52 0 -88.5 35t-36.5 87zM492 1384q0 55 40.5 95.5t96.5 40.5q50 0 86.5 -36t36.5 -87q0 -54 -41 -94.5t-95 -40.5q-52 0 -88 35t-36 87z" />
<glyph unicode="&#xf0;" horiz-adv-x="1085" d="M57 391q0 128 36 241t94.5 192.5t132 137t149.5 85.5t145 28q116 0 181 -65q-58 156 -181 293l-247 -111l-31 72l219 98q-102 92 -221 156l26 59q175 -65 308 -166l256 115l30 -72l-217 -96q291 -259 291 -643q0 -144 -36 -268.5t-95 -210t-134.5 -147t-154.5 -90 t-155 -28.5q-96 0 -173 34t-124.5 92.5t-73 133.5t-25.5 160zM258 313q0 -125 49 -190.5t146 -65.5q111 0 197.5 97t131.5 250.5t45 330.5q0 123 -50.5 189.5t-145.5 66.5q-109 0 -195.5 -94t-132 -248t-45.5 -336z" />
<glyph unicode="&#xf1;" horiz-adv-x="1191" d="M98 0l172 793q15 73 15 81q0 37 -35 29q-26 -7 -80 -39l-41 -24l-29 43q102 101 172 145.5t134 44.5q37 0 56 -23.5t19 -62.5q0 -65 -39 -237h11q137 158 246 240.5t216 82.5q79 0 120.5 -50t41.5 -130t-28 -203l-105 -446q-10 -58 -10 -72q0 -25 11 -34t38.5 -1.5 t73.5 35.5l43 29l33 -47q-101 -91 -171.5 -131.5t-150.5 -40.5q-40 0 -64 27.5t-24 68.5q0 51 25 164l100 434q33 148 27 199t-56 51q-72 0 -177 -86.5t-208 -204.5l-137 -635h-199zM365 1223q61 134 112 194t113 60q46 0 148.5 -42t123.5 -42q31 0 60.5 30.5t76.5 104.5 l64 -27q-61 -134 -112 -194t-113 -60q-45 0 -146.5 42t-126.5 42q-31 0 -59.5 -30.5t-75.5 -106.5z" />
<glyph unicode="&#xf2;" horiz-adv-x="1085" d="M57 391q0 128 36.5 241t96 192.5t135 137t155 85.5t155.5 28q124 0 215 -58.5t134.5 -151t43.5 -203.5q0 -132 -36 -246.5t-95 -194.5t-134.5 -137.5t-154.5 -85t-155 -27.5q-96 0 -173 34t-124.5 92.5t-73 133.5t-25.5 160zM258 313q0 -125 49 -190.5t146 -65.5 q111 0 197.5 97t131.5 250.5t45 330.5q0 123 -50.5 189.5t-145.5 66.5q-109 0 -195.5 -94t-132 -248t-45.5 -336zM418 1440q0 33 25 60.5t59 27.5q32 0 80 -31l333 -233l-22 -50l-399 132q-40 12 -58 38t-18 56z" />
<glyph unicode="&#xf3;" horiz-adv-x="1085" d="M57 391q0 128 36.5 241t96 192.5t135 137t155 85.5t155.5 28q124 0 215 -58.5t134.5 -151t43.5 -203.5q0 -132 -36 -246.5t-95 -194.5t-134.5 -137.5t-154.5 -85t-155 -27.5q-96 0 -173 34t-124.5 92.5t-73 133.5t-25.5 160zM258 313q0 -125 49 -190.5t146 -65.5 q111 0 197.5 97t131.5 250.5t45 330.5q0 123 -50.5 189.5t-145.5 66.5q-109 0 -195.5 -94t-132 -248t-45.5 -336zM494 1264l331 233q44 31 80 31q35 0 57.5 -25t22.5 -55q0 -72 -86 -100l-385 -129z" />
<glyph unicode="&#xf4;" horiz-adv-x="1085" d="M57 391q0 128 36.5 241t96 192.5t135 137t155 85.5t155.5 28q124 0 215 -58.5t134.5 -151t43.5 -203.5q0 -132 -36 -246.5t-95 -194.5t-134.5 -137.5t-154.5 -85t-155 -27.5q-96 0 -173 34t-124.5 92.5t-73 133.5t-25.5 160zM258 313q0 -125 49 -190.5t146 -65.5 q111 0 197.5 97t131.5 250.5t45 330.5q0 123 -50.5 189.5t-145.5 66.5q-109 0 -195.5 -94t-132 -248t-45.5 -336zM358 1233l326 307h88l217 -307l-33 -41l-249 180l-320 -180z" />
<glyph unicode="&#xf5;" horiz-adv-x="1085" d="M57 391q0 128 36.5 241t96 192.5t135 137t155 85.5t155.5 28q124 0 215 -58.5t134.5 -151t43.5 -203.5q0 -132 -36 -246.5t-95 -194.5t-134.5 -137.5t-154.5 -85t-155 -27.5q-96 0 -173 34t-124.5 92.5t-73 133.5t-25.5 160zM258 313q0 -125 49 -190.5t146 -65.5 q111 0 197.5 97t131.5 250.5t45 330.5q0 123 -50.5 189.5t-145.5 66.5q-109 0 -195.5 -94t-132 -248t-45.5 -336zM324 1223q61 134 112 194t113 60q46 0 148.5 -42t123.5 -42q31 0 60.5 30.5t76.5 104.5l64 -27q-61 -134 -112 -194t-113 -60q-45 0 -146.5 42t-126.5 42 q-31 0 -59.5 -30.5t-75.5 -106.5z" />
<glyph unicode="&#xf6;" horiz-adv-x="1085" d="M57 391q0 128 36.5 241t96 192.5t135 137t155 85.5t155.5 28q124 0 215 -58.5t134.5 -151t43.5 -203.5q0 -132 -36 -246.5t-95 -194.5t-134.5 -137.5t-154.5 -85t-155 -27.5q-96 0 -173 34t-124.5 92.5t-73 133.5t-25.5 160zM258 313q0 -125 49 -190.5t146 -65.5 q111 0 197.5 97t131.5 250.5t45 330.5q0 123 -50.5 189.5t-145.5 66.5q-109 0 -195.5 -94t-132 -248t-45.5 -336zM369 1384q0 56 41 96t98 40q47 0 85 -36.5t38 -86.5q0 -54 -41.5 -94.5t-95.5 -40.5q-52 0 -88.5 35t-36.5 87zM778 1384q0 55 40.5 95.5t96.5 40.5 q50 0 86.5 -36t36.5 -87q0 -54 -40.5 -94.5t-94.5 -40.5q-52 0 -88.5 35t-36.5 87z" />
<glyph unicode="&#xf7;" horiz-adv-x="942" d="M109 635v115h778v-115h-778zM356 348q0 56 41 95.5t99 39.5q60 0 100.5 -39.5t40.5 -95.5q0 -58 -40.5 -97.5t-100.5 -39.5q-59 0 -99.5 39.5t-40.5 97.5zM356 1034q0 57 41 97t99 40q60 0 100.5 -40t40.5 -97t-40.5 -96t-100.5 -39q-59 0 -99.5 39t-40.5 96z" />
<glyph unicode="&#xf8;" horiz-adv-x="1085" d="M12 -131l156 215q-111 117 -111 307q0 128 36.5 241t96 192.5t135 137t155 85.5t155.5 28q119 0 209 -55l102 143h113l-146 -198q115 -118 115 -303q0 -132 -36 -246.5t-95 -194.5t-134.5 -137.5t-154.5 -85t-155 -27.5q-124 0 -215 56l-113 -158h-113zM254 313 q0 -73 4 -102l524 727q-47 53 -151 53q-109 0 -196.5 -94t-134 -248.5t-46.5 -335.5zM297 109q49 -52 156 -52q111 0 198.5 97t133.5 251t46 330q0 62 -8 103z" />
<glyph unicode="&#xf9;" horiz-adv-x="1185" d="M78 883q102 100 173 145t136 45q41 0 62.5 -31t21.5 -77q0 -51 -25 -164l-100 -434q-23 -100 -27 -153t9.5 -75t48.5 -22q120 0 379 291l135 634h199l-175 -798q-10 -58 -10 -72q0 -24 12 -33t39.5 -1t71.5 34l43 29l31 -47q-202 -185 -320 -185q-37 0 -59.5 30t-22.5 69 q0 72 45 225h-10q-68 -78 -119 -130t-109.5 -99.5t-114.5 -71t-111 -23.5q-79 0 -121.5 50.5t-42.5 130.5q0 79 28 202l107 449q12 50 12 73q0 42 -45 27q-26 -9 -72 -37l-38 -24zM442 1440q0 33 25 60.5t59 27.5q32 0 80 -31l334 -233l-22 -50l-400 132q-40 12 -58 38 t-18 56z" />
<glyph unicode="&#xfa;" horiz-adv-x="1185" d="M78 883q102 100 173 145t136 45q41 0 62.5 -31t21.5 -77q0 -51 -25 -164l-100 -434q-23 -100 -27 -153t9.5 -75t48.5 -22q120 0 379 291l135 634h199l-175 -798q-10 -58 -10 -72q0 -24 12 -33t39.5 -1t71.5 34l43 29l31 -47q-202 -185 -320 -185q-37 0 -59.5 30t-22.5 69 q0 72 45 225h-10q-68 -78 -119 -130t-109.5 -99.5t-114.5 -71t-111 -23.5q-79 0 -121.5 50.5t-42.5 130.5q0 79 28 202l107 449q12 50 12 73q0 42 -45 27q-26 -9 -72 -37l-38 -24zM543 1264l331 233q44 31 80 31q35 0 57.5 -25t22.5 -55q0 -72 -86 -100l-385 -129z" />
<glyph unicode="&#xfb;" horiz-adv-x="1185" d="M78 883q102 100 173 145t136 45q41 0 62.5 -31t21.5 -77q0 -51 -25 -164l-100 -434q-23 -100 -27 -153t9.5 -75t48.5 -22q120 0 379 291l135 634h199l-175 -798q-10 -58 -10 -72q0 -24 12 -33t39.5 -1t71.5 34l43 29l31 -47q-202 -185 -320 -185q-37 0 -59.5 30t-22.5 69 q0 72 45 225h-10q-68 -78 -119 -130t-109.5 -99.5t-114.5 -71t-111 -23.5q-79 0 -121.5 50.5t-42.5 130.5q0 79 28 202l107 449q12 50 12 73q0 42 -45 27q-26 -9 -72 -37l-38 -24zM408 1233l325 307h88l217 -307l-32 -41l-250 180l-320 -180z" />
<glyph unicode="&#xfc;" horiz-adv-x="1185" d="M78 883q102 100 173 145t136 45q41 0 62.5 -31t21.5 -77q0 -51 -25 -164l-100 -434q-23 -100 -27 -153t9.5 -75t48.5 -22q120 0 379 291l135 634h199l-175 -798q-10 -58 -10 -72q0 -24 12 -33t39.5 -1t71.5 34l43 29l31 -47q-202 -185 -320 -185q-37 0 -59.5 30t-22.5 69 q0 72 45 225h-10q-68 -78 -119 -130t-109.5 -99.5t-114.5 -71t-111 -23.5q-79 0 -121.5 50.5t-42.5 130.5q0 79 28 202l107 449q12 50 12 73q0 42 -45 27q-26 -9 -72 -37l-38 -24zM393 1384q0 56 41 96t98 40q47 0 85 -36.5t38 -86.5q0 -54 -41.5 -94.5t-95.5 -40.5 q-52 0 -88.5 35t-36.5 87zM803 1384q0 55 40.5 95.5t96.5 40.5q50 0 86.5 -36t36.5 -87q0 -54 -40.5 -94.5t-94.5 -40.5q-52 0 -88.5 35t-36.5 87z" />
<glyph unicode="&#xfd;" horiz-adv-x="1007" d="M-162 -362q0 51 26.5 78.5t67.5 27.5q30 0 54 -11t36.5 -25t30.5 -25t39 -11q43 0 121.5 60t179.5 180q-81 663 -131 856q-31 112 -58 127.5t-87 -29.5l-49 -32l-33 49q180 190 280 190q43 0 71 -30t48 -115q77 -335 115 -795h10q129 187 212 364.5t83 280.5 q0 48 -33 104.5t-33 98.5q0 40 30 67t77 27q57 0 91 -35t34 -96q0 -140 -120 -400t-302 -507q-176 -243 -334 -377.5t-284 -134.5q-68 0 -105 32t-37 81zM451 1264l331 233q44 31 80 31q35 0 57.5 -25t22.5 -55q0 -72 -86 -100l-385 -129z" />
<glyph unicode="&#xfe;" horiz-adv-x="1105" d="M-180 -449l12 60l88 22q34 9 48 28.5t26 78.5l321 1597q9 50 -1.5 70t-49.5 35l-86 35l10 57l355 33l18 -17q-34 -112 -57 -239l-66 -344q-5 -29 -18 -79t-23 -85l-10 -35h8q39 47 70 82t79 80t91 73.5t96.5 49t104.5 20.5q104 0 166.5 -83t62.5 -218q0 -172 -53 -323.5 t-139.5 -254.5t-198 -162t-228.5 -59q-132 0 -208 39q-9 -68 -21 -131l-27 -141q-11 -65 -5 -83t38 -24l107 -22l-13 -60h-497zM274 170q79 -111 195 -111q110 0 200 94.5t141.5 259.5t51.5 365q0 85 -26.5 121.5t-79.5 36.5q-42 0 -95.5 -28.5t-107 -76t-99 -95 t-87.5 -99.5z" />
<glyph unicode="&#xff;" horiz-adv-x="1007" d="M-162 -362q0 51 26.5 78.5t67.5 27.5q30 0 54 -11t36.5 -25t30.5 -25t39 -11q43 0 121.5 60t179.5 180q-81 663 -131 856q-31 112 -58 127.5t-87 -29.5l-49 -32l-33 49q180 190 280 190q43 0 71 -30t48 -115q77 -335 115 -795h10q129 187 212 364.5t83 280.5 q0 48 -33 104.5t-33 98.5q0 40 30 67t77 27q57 0 91 -35t34 -96q0 -140 -120 -400t-302 -507q-176 -243 -334 -377.5t-284 -134.5q-68 0 -105 32t-37 81zM297 1384q0 56 41 96t98 40q47 0 85 -36.5t38 -86.5q0 -54 -41.5 -94.5t-95.5 -40.5q-52 0 -88.5 35t-36.5 87z M707 1384q0 55 40.5 95.5t96.5 40.5q50 0 86.5 -36t36.5 -87q0 -54 -41 -94.5t-95 -40.5q-52 0 -88 35t-36 87z" />
<glyph unicode="&#x152;" horiz-adv-x="1976" d="M92 551q0 157 43.5 295.5t121 242t181 178.5t227 113.5t255.5 38.5h1028l-2 -362h-70q-58 157 -78 192q-33 52 -80.5 66t-185.5 14q-142 0 -219 -18l-92 -527h94q107 0 150 10.5t71 51.5q30 46 70 143h71l-88 -508h-69q-5 86 -19 146q-12 42 -53.5 52.5t-181.5 10.5h-62 l-67 -379q-9 -55 -12.5 -85t1 -58.5t16.5 -40.5t41 -22.5t66 -12.5t99 -2q144 0 201 17t104 67q84 93 174 254h78l-121 -428h-1079q-177 0 -314 61.5t-218 188t-81 301.5zM322 496q0 -208 100 -309t303 -101q92 0 129.5 31.5t54.5 122.5l158 897q23 120 -7.5 158t-135.5 38 q-155 0 -272 -62t-188.5 -175.5t-106.5 -263.5t-35 -336z" />
<glyph unicode="&#x153;" horiz-adv-x="1626" d="M53 391q0 128 36 241t94.5 192.5t132.5 137t151.5 85.5t150.5 28q133 0 219 -77t117 -201q95 128 217 203t226 75q134 0 191 -49.5t57 -146.5q0 -83 -89 -171.5t-245 -162.5t-344 -113q-9 -62 -9 -123q0 -108 48.5 -167.5t132.5 -59.5q36 0 72 10t61 20.5t65.5 38t58 41 t66.5 52.5l43 -49q-209 -224 -442 -224q-100 0 -164 51t-90 138q-77 -91 -176 -140t-193 -49q-92 0 -167 34t-122.5 92.5t-72.5 133.5t-25 160zM254 313q0 -123 48.5 -189.5t137.5 -66.5q106 0 191.5 97t130.5 251t45 330q0 121 -52.5 188.5t-140.5 67.5q-104 0 -187.5 -94 t-128 -248.5t-44.5 -335.5zM981 512q249 64 365 160q102 83 102 215q0 50 -22 77t-60 27q-102 0 -219.5 -140t-165.5 -339z" />
<glyph unicode="&#x178;" horiz-adv-x="1214" d="M150 1358l12 61h516l-14 -61l-54 -12q-52 -11 -75 -28t-23 -48q0 -27 23 -109l141 -467h10l291 434q41 61 57.5 94t16.5 58q0 55 -70 68l-49 10l14 61h428l-12 -61l-49 -15q-53 -18 -96 -59.5t-117 -150.5l-373 -551l-68 -377q-11 -47 -9 -73t12.5 -35.5t39.5 -14.5 l93 -19l-13 -63h-542l12 63l102 19q41 8 57 29t29 94l66 362l-191 594q-31 98 -53.5 134t-62.5 48zM512 1712q0 55 41 95t98 40q47 0 85 -36.5t38 -86.5q0 -54 -41.5 -94.5t-95.5 -40.5q-52 0 -88.5 35.5t-36.5 87.5zM922 1712q0 55 40.5 95t96.5 40q50 0 86.5 -36t36.5 -87 q0 -54 -40.5 -94.5t-94.5 -40.5q-52 0 -88.5 35.5t-36.5 87.5z" />
<glyph unicode="&#x2c6;" horiz-adv-x="1064" d="M328 1233l325 307h88l217 -307l-32 -41l-250 180l-320 -180z" />
<glyph unicode="&#x2dc;" horiz-adv-x="1064" d="M305 1223q61 134 112 194t113 60q46 0 149 -42t124 -42q31 0 60.5 30.5t76.5 104.5l64 -27q-61 -134 -112.5 -194t-113.5 -60q-45 0 -146 42t-126 42q-31 0 -59.5 -30.5t-75.5 -106.5z" />
<glyph unicode="&#x2000;" horiz-adv-x="957" />
<glyph unicode="&#x2001;" horiz-adv-x="1915" />
<glyph unicode="&#x2002;" horiz-adv-x="957" />
<glyph unicode="&#x2003;" horiz-adv-x="1915" />
<glyph unicode="&#x2004;" horiz-adv-x="638" />
<glyph unicode="&#x2005;" horiz-adv-x="478" />
<glyph unicode="&#x2006;" horiz-adv-x="319" />
<glyph unicode="&#x2007;" horiz-adv-x="319" />
<glyph unicode="&#x2008;" horiz-adv-x="239" />
<glyph unicode="&#x2009;" horiz-adv-x="383" />
<glyph unicode="&#x200a;" horiz-adv-x="106" />
<glyph unicode="&#x2010;" horiz-adv-x="591" d="M76 520l22 152h443l-23 -152h-442z" />
<glyph unicode="&#x2011;" horiz-adv-x="591" d="M76 520l22 152h443l-23 -152h-442z" />
<glyph unicode="&#x2012;" horiz-adv-x="591" d="M76 520l22 152h443l-23 -152h-442z" />
<glyph unicode="&#x2013;" horiz-adv-x="835" d="M104 535l23 104h629l-21 -104h-631z" />
<glyph unicode="&#x2014;" horiz-adv-x="1312" d="M104 535l23 104h1106l-21 -104h-1108z" />
<glyph unicode="&#x2018;" horiz-adv-x="440" d="M137 1104q0 119 104 219t289 129l19 -59q-138 -41 -207.5 -105t-77.5 -141q26 16 60 16q43 0 77.5 -33t34.5 -90q0 -54 -39.5 -89.5t-97.5 -35.5q-74 0 -118 51t-44 138z" />
<glyph unicode="&#x2019;" horiz-adv-x="442" d="M90 973q138 41 206.5 104t76.5 140q-27 -17 -60 -17q-43 0 -77.5 33t-34.5 90q0 54 39.5 89.5t97.5 35.5q74 0 118 -50.5t44 -137.5q0 -119 -104.5 -219.5t-289.5 -129.5z" />
<glyph unicode="&#x201a;" horiz-adv-x="440" d="M-119 -197q139 41 208 105t77 141q-26 -16 -60 -16q-43 0 -77.5 33t-34.5 90q0 54 39.5 89.5t97.5 35.5q74 0 118 -51t44 -138q0 -119 -104 -219t-289 -129z" />
<glyph unicode="&#x201c;" horiz-adv-x="862" d="M137 1104q0 119 104 219t289 129l19 -59q-138 -41 -207.5 -105t-77.5 -141q26 16 60 16q43 0 77.5 -33t34.5 -90q0 -54 -39.5 -89.5t-97.5 -35.5q-74 0 -118 51t-44 138zM559 1104q0 119 104 219t289 129l19 -59q-138 -41 -207.5 -105t-77.5 -141q26 16 59 16 q43 0 78 -33t35 -90q0 -54 -39.5 -89.5t-97.5 -35.5q-74 0 -118 51t-44 138z" />
<glyph unicode="&#x201d;" horiz-adv-x="862" d="M90 973q138 41 206.5 104t76.5 140q-27 -17 -60 -17q-43 0 -77.5 33t-34.5 90q0 54 39.5 89.5t97.5 35.5q74 0 118 -50.5t44 -137.5q0 -119 -104.5 -219.5t-289.5 -129.5zM512 973q138 41 206.5 104t76.5 140q-27 -17 -60 -17q-43 0 -77.5 33t-34.5 90q0 54 39.5 89.5 t97.5 35.5q74 0 118 -50.5t44 -137.5q0 -119 -104.5 -219.5t-289.5 -129.5z" />
<glyph unicode="&#x201e;" horiz-adv-x="862" d="M-119 -197q139 41 208 105t77 141q-26 -16 -60 -16q-43 0 -77.5 33t-34.5 90q0 54 39.5 89.5t97.5 35.5q74 0 118 -51t44 -138q0 -119 -104 -219t-289 -129zM305 -197q138 41 206.5 105t76.5 141q-26 -16 -60 -16q-43 0 -77.5 33t-34.5 90q0 54 39.5 89.5t97.5 35.5 q74 0 118 -51t44 -138q0 -119 -104 -219t-289 -129z" />
<glyph unicode="&#x2022;" horiz-adv-x="856" d="M141 682q0 136 91.5 231t222.5 95q123 0 210 -87t87 -212q0 -131 -95 -225.5t-221 -94.5q-122 0 -208.5 86t-86.5 207z" />
<glyph unicode="&#x2026;" horiz-adv-x="1712" d="M80 131q0 60 43 102.5t104 42.5q63 0 106.5 -42.5t43.5 -102.5t-43.5 -101.5t-106.5 -41.5q-62 0 -104.5 41.5t-42.5 101.5zM647 131q0 60 43.5 102.5t104.5 42.5q63 0 106 -42.5t43 -102.5t-43 -101.5t-106 -41.5q-62 0 -105 41.5t-43 101.5zM1214 131q0 60 43.5 102.5 t104.5 42.5q63 0 106 -42.5t43 -102.5t-43 -101.5t-106 -41.5q-62 0 -105 41.5t-43 101.5z" />
<glyph unicode="&#x202f;" horiz-adv-x="383" />
<glyph unicode="&#x2039;" horiz-adv-x="567" d="M92 498l6 59l383 385h90l-286 -430l145 -420h-82z" />
<glyph unicode="&#x203a;" horiz-adv-x="567" d="M-8 92l287 430l-144 420h80l258 -405l-8 -60l-383 -385h-90z" />
<glyph unicode="&#x205f;" horiz-adv-x="478" />
<glyph unicode="&#x20ac;" horiz-adv-x="1189" d="M45 520l18 94h132q8 96 34 193h-131l17 94h143q62 167 171.5 292t237 188t255.5 63q148 0 231.5 -54t83.5 -145q0 -62 -29 -94.5t-82 -32.5q-56 0 -83 26t-33 99q-6 76 -23 96.5t-80 20.5q-145 0 -264.5 -125t-185.5 -334h475l-33 -94h-467q-22 -110 -29 -193h435 l-29 -94h-410v-28q0 -200 79 -296t251 -96q156 0 322 95l-11 -84q-165 -136 -399 -136q-219 0 -335 140.5t-116 388.5v16h-145z" />
<glyph unicode="&#x2122;" horiz-adv-x="1742" d="M184 1159l54 260h598l-19 -260h-53q-8 26 -17.5 60.5t-16 55t-15.5 38.5q-10 26 -31.5 35.5t-69.5 9.5h-10l-88 -490q-4 -26 -2 -40t7.5 -19t19.5 -8l63 -15l-8 -59h-352l10 59l70 15q23 6 30 16.5t13 50.5l88 490h-11q-62 0 -81.5 -7t-40.5 -38q-17 -27 -82 -154h-56z M788 727l13 59l49 13q22 6 35 28t20 72l72 391q4 28 -1.5 39t-23.5 17l-51 14l12 59h277l98 -483h4l234 483h297l-13 -59l-51 -14q-22 -6 -30.5 -16.5t-12.5 -39.5l-63 -422q-7 -40 -4.5 -52.5t20.5 -16.5l51 -13l-10 -59h-321l12 59l53 15q22 6 29 16.5t14 50.5l74 471h-8 l-297 -594h-76l-113 594h-6l-78 -440q-8 -54 -2.5 -73.5t31.5 -26.5l45 -13l-10 -59h-269z" />
<glyph unicode="&#x25fc;" horiz-adv-x="1075" d="M0 0v1075h1075v-1075h-1075z" />
</font>
</defs>
</svg>
